<svg width="24" height="20" viewBox="0 0 24 20" fill="none" xmlns="http://www.w3.org/2000/svg">
    <path
        d="M11.6081 0.0684239C11.026 0.249919 9.92734 1.13629 9.90829 1.15106C9.19281 1.7272 7.28345 3.52316 6.34783 4.27657C6.20177 4.39475 6.14673 4.4032 6.01972 4.50661C5.54344 4.8907 5.08409 5.33389 4.58876 5.73486C3.54518 6.57903 1.86655 7.50127 0.801802 8.3581C0.139242 8.89625 -0.0258683 9.41119 0.0101174 9.83538C-0.0428027 10.2575 0.0990232 10.7787 0.742531 11.3338C1.76918 12.2222 3.40759 13.1909 4.4173 14.0625C4.8957 14.4762 5.33599 14.932 5.79534 15.3288C5.91812 15.4364 5.97315 15.4448 6.11498 15.5672C7.01674 16.3481 8.85201 18.1947 9.54208 18.7919C9.55902 18.8067 10.6217 19.7247 11.1953 19.9231C11.7139 20.1109 12.4781 19.9484 12.8676 19.5031C13.5746 18.6949 12.567 17.7135 12.4082 17.5384C11.7563 16.825 11.1233 16.1286 10.4142 15.5166C9.59924 14.8117 8.33974 13.9085 7.29404 13.0052C6.85798 12.6274 6.39016 12.1906 5.93293 11.7474C7.53324 11.7115 9.6204 11.395 11.1339 11.395C11.8939 11.395 12.6517 11.4541 13.382 11.4541C13.5788 11.4541 13.636 11.4245 13.8604 11.4245C15.2934 11.4245 18.4136 11.6334 19.508 11.6334C19.5355 11.6334 21.2226 11.6334 21.8957 11.3929C22.5139 11.1839 23.0769 10.5234 23.0769 9.89447C23.0769 8.75485 21.3919 8.66622 21.1104 8.63456C19.9589 8.51427 18.8348 8.39397 17.7108 8.39397C16.4175 8.39397 14.5631 8.54381 12.9057 8.54381C10.4608 8.54381 7.03155 8.21459 6.38593 8.21459C6.30337 8.21459 6.09169 8.22303 5.81651 8.26102C6.35206 7.77351 6.90878 7.28179 7.42105 6.86815C8.50273 5.99444 9.80033 5.12707 10.6428 4.44752C11.3752 3.8566 12.0378 3.17705 12.7194 2.48273C12.8845 2.31389 13.9323 1.35999 13.2592 0.532712C12.8866 0.0747544 12.1309 -0.108851 11.6038 0.0642022"
        fill="#231F20" />
</svg>
