<svg width="39" height="45" viewBox="0 0 39 45" fill="none" xmlns="http://www.w3.org/2000/svg">
	<path
		d="M0.133432 22.3642C0.487345 23.4994 2.21577 25.6417 2.24457 25.6788C3.36805 27.074 6.87016 30.7973 8.33932 32.6217C8.56977 32.9066 8.58624 33.0139 8.78789 33.2615C9.53687 34.1903 10.4011 35.086 11.183 36.0519C12.8291 38.0869 14.6275 41.3602 16.2983 43.4365C17.3477 44.7285 18.3518 45.0504 19.179 44.9803C20.0021 45.0835 21.0185 44.8069 22.1008 43.5521C23.8334 41.5501 25.7223 38.3552 27.4219 36.3863C28.2285 35.4534 29.1174 34.5948 29.8911 33.6991C30.101 33.4597 30.1174 33.3524 30.3561 33.0758C31.8788 31.3174 35.4797 27.7386 36.6443 26.3929C36.6731 26.3599 38.4632 24.2878 38.8501 23.1692C39.2163 22.1578 38.8995 20.6677 38.0311 19.9082C36.455 18.5295 34.5414 20.4944 34.1998 20.8039C32.8088 22.0753 31.4508 23.3095 30.2574 24.6923C28.8829 26.2815 27.1215 28.7375 25.3602 30.7766C24.6235 31.6269 23.7717 32.5392 22.9074 33.4308C22.8375 30.3102 22.2202 26.2402 22.2202 23.2889C22.2202 21.807 22.3354 20.3292 22.3354 18.9052C22.3354 18.5213 22.2778 18.4098 22.2778 17.9723C22.2778 15.1778 22.6852 9.09347 22.6852 6.95941C22.6852 6.90575 22.6852 3.61592 22.2161 2.30329C21.8087 1.09798 20.5206 -1.61552e-06 19.2942 -1.72273e-06C17.072 -1.91701e-06 16.8991 3.2857 16.8374 3.83469C16.6028 6.0802 16.3683 8.27204 16.3683 10.4639C16.3683 12.986 16.6604 16.6019 16.6604 19.8339C16.6604 24.6015 16.0185 31.2885 16.0185 32.5474C16.0185 32.7084 16.0349 33.1212 16.109 33.6578C15.1584 32.6135 14.1995 31.5279 13.3929 30.529C11.6892 28.4197 9.99778 25.8893 8.67266 24.2465C7.52038 22.8183 6.19525 21.5263 4.84132 20.1972C4.5121 19.8752 2.65199 17.8319 1.03879 19.1446C0.145777 19.8711 -0.212255 21.3447 0.1252 22.3725"
		fill="white" />
</svg>
