<svg width="370" height="69" viewBox="0 0 370 69" fill="none" xmlns="http://www.w3.org/2000/svg">
    <path
        d="M34.8757 0.007715C34.6567 0.00257167 34.4377 0 34.2187 0C27.4727 0 21.2127 2.00333 16.0396 5.42364C5.00987 11.9608 -0.908275 25.1406 0.694112 37.4795C0.718147 37.6749 0.744854 37.8704 0.77156 38.0658L5.48792 32.8042L34.8757 0.007715Z"
        fill="url(#paint0_linear_334_579)" />
    <path
        d="M66.3705 30.9577C66.3705 18.4311 58.6443 7.64553 47.5317 2.76965V37.8086H56.2754V49.0056H47.5317V59.1432C58.6443 54.2698 66.3705 43.4817 66.3705 30.9551V30.9577Z"
        fill="url(#paint1_linear_334_579)" />
    <path
        d="M57.7313 60.4907C47.9407 66.0918 35.4073 66.583 25.1975 61.8331C23.0022 60.8559 20.9565 59.6549 19.0737 58.2662C23.4856 60.5395 28.5144 61.8511 33.8557 61.9077V49.0056H4.23291C6.98635 54.3907 11.1312 59.1071 16.2935 62.5454C25.112 68.5117 37.0097 70.4302 47.1876 67.0793C51.1642 65.796 54.9939 63.7181 58.0117 60.9433L58.0544 60.9047C58.1452 60.8224 58.1666 60.6887 58.0998 60.5807C58.0224 60.4572 57.8568 60.4135 57.7259 60.4881L57.7313 60.4907Z"
        fill="url(#paint2_linear_334_579)" />
    <path
        d="M69.2335 50.1063C69.1854 49.9391 69.0599 49.862 68.8543 49.8774C68.5845 49.898 68.3121 49.9211 68.0477 49.9777C67.4816 50.0986 66.9608 50.3146 66.5308 50.6824C66.0528 51.0912 65.5533 51.4847 65.0887 51.9013C64.859 52.1096 64.6186 52.2099 64.3035 52.2614C62.7091 52.5237 61.1147 52.7988 59.5204 53.0714C59.3388 53.1023 59.1785 53.1692 59.0423 53.2823C58.7592 53.5138 58.4761 53.7401 58.1904 53.9715C58.0942 54.0487 58.0061 54.1284 58.0435 54.2415C58.0809 54.3521 58.1984 54.3675 58.3239 54.3753C59.4856 54.4344 60.6474 54.4936 61.8091 54.5553C61.8572 54.5553 61.9052 54.563 61.9747 54.5681C61.932 54.6093 61.9052 54.635 61.8732 54.6607C61.1334 55.3036 60.391 55.9466 59.6512 56.592C59.5845 56.6512 59.523 56.6692 59.4376 56.6743C58.9275 56.7052 58.4147 56.7463 57.9046 56.7721C57.6936 56.7823 57.5067 56.8363 57.3384 56.9469C57.0313 57.1475 56.7215 57.3481 56.4304 57.5616C56.345 57.6259 56.3129 57.739 56.2568 57.8316C56.2755 57.8804 56.2942 57.9293 56.3129 57.9782C56.4251 58.0193 56.5292 58.0759 56.6494 58.099C57.5601 58.2842 58.4735 58.4565 59.3842 58.6442C59.6325 58.6957 59.8756 58.6751 60.1186 58.5851C60.4524 58.4616 60.7889 58.3356 61.1121 58.1865C61.283 58.1093 61.4432 57.9987 61.5821 57.8804C63.7373 56.0237 65.8899 54.1644 68.037 52.2999C68.5258 51.8756 68.9317 51.405 69.1614 50.8624C69.2709 50.6052 69.3109 50.3532 69.2388 50.1012L69.2335 50.1063Z"
        fill="url(#paint3_linear_334_579)" />
    <path d="M33.858 18.282L16.5522 37.8112H33.858V18.282Z" fill="url(#paint4_linear_334_579)" />
    <path
        d="M353.702 23.7211V45.1251H369.427V41.1313H358.315V23.7211H353.702ZM332.887 32.4108V27.5555H344.003V23.7211H328.278V45.1251H344.003V41.1956H332.887V36.0188H342.707V32.4082H332.887V32.4108ZM315.491 23.7211L309.386 37.873L303.315 23.7211H297.907L308.259 45.2845H310.547L320.899 23.7211H315.491ZM288.472 37.3612H282.898L285.684 30.8112L288.469 37.3612H288.472ZM284.525 23.5617L274.173 45.1251H279.581L281.274 41.1313H290.066L291.759 45.1251H297.167L286.816 23.5617H284.527H284.525ZM259.696 27.8743C260.889 27.8743 261.902 28.1032 262.732 28.561C263.563 29.0187 263.977 29.7697 263.977 30.8138C263.977 31.773 263.584 32.5111 262.799 33.0331C262.014 33.5552 260.956 33.8149 259.632 33.8149C258.967 33.8149 258.31 33.766 257.658 33.6709C257.006 33.5757 256.413 33.442 255.882 33.2723V27.8743H259.696ZM251.27 23.7211V45.1251H255.882V36.3711L263.611 45.1251H269.681L261.685 36.8829C262.924 36.798 264.075 36.5049 265.136 36.0034C266.196 35.5045 267.056 34.7998 267.708 33.8946C268.359 32.9894 268.685 31.9093 268.685 30.6517C268.685 29.4585 268.447 28.4324 267.972 27.5683C267.497 26.7068 266.856 25.9867 266.049 25.4107C265.24 24.8372 264.34 24.4103 263.346 24.1326C262.35 23.8548 261.333 23.716 260.294 23.716H251.27V23.7211ZM224.55 23.7211V27.7149H231.651V45.0299H236.229V27.7149H243.327V23.7211H224.55ZM203.345 36.7877H199.563C200.247 36.0214 200.885 35.2319 201.47 34.4244C202.055 33.6143 202.68 32.7322 203.345 31.773V36.7877ZM204.707 23.7211C203.049 26.5962 201.302 29.1782 199.465 31.467C197.627 33.7557 195.803 35.8594 193.99 37.7778V40.3984H203.345V45.1251H207.591V40.3984H210.609V36.7877H207.591V23.7211H204.704H204.707ZM158.692 23.7211V27.7149H165.793V45.0299H170.371V27.7149H177.469V23.7211H158.692ZM141.362 24.1197C140.168 24.6623 139.199 25.4184 138.459 26.3879C137.719 27.3574 137.348 28.4915 137.348 29.7902C137.348 31.0889 137.652 32.1922 138.261 33.226C138.87 34.2598 140.037 35.0956 141.763 35.7334L145.181 37.0115C145.822 37.2455 146.412 37.5387 146.957 37.8884C147.499 38.2407 147.769 38.6933 147.769 39.2463C147.769 39.9483 147.438 40.4755 146.773 40.8278C146.11 41.1801 145.312 41.355 144.385 41.355C143.058 41.355 141.808 41.121 140.636 40.653C139.463 40.1849 138.39 39.6089 137.417 38.9274V43.3043C138.301 43.9215 139.34 44.4436 140.537 44.8705C141.731 45.2974 142.98 45.5108 144.286 45.5108C145.835 45.5108 147.245 45.2331 148.517 44.6802C149.788 44.1273 150.805 43.3661 151.569 42.3965C152.333 41.427 152.715 40.3032 152.715 39.0251C152.715 37.8524 152.349 36.8109 151.62 35.8954C150.891 34.9799 149.75 34.2032 148.202 33.5629L145.48 32.4776C144.551 32.115 143.766 31.7524 143.125 31.3898C142.484 31.0272 142.163 30.4949 142.163 29.7928C142.163 29.2605 142.345 28.8259 142.711 28.4838C143.074 28.1444 143.539 27.8872 144.105 27.7175C144.668 27.5477 145.24 27.4629 145.814 27.4629C146.965 27.4629 147.993 27.666 148.901 28.0698C149.807 28.4735 150.659 28.9107 151.454 29.3813V25.0044C150.725 24.5569 149.828 24.1634 148.768 23.8214C147.707 23.4819 146.535 23.3096 145.25 23.3096C143.856 23.3096 142.564 23.5822 141.37 24.1249M118.365 32.4133V27.558H129.48V23.7237H113.756V45.1277H129.48V41.1981H118.365V36.0214H128.185V32.4108H118.365V32.4133ZM91.5785 36.0548H95.6593C96.8744 36.0548 97.9159 36.2734 98.7786 36.708C99.6412 37.1452 100.071 37.8113 100.071 38.7062C100.071 39.6011 99.6572 40.2929 98.8266 40.7815C97.9987 41.2727 96.9412 41.517 95.6593 41.517C95.1732 41.517 94.5242 41.4913 93.7177 41.4373C92.9085 41.3833 92.1954 41.283 91.5785 41.1339V36.0548ZM98.1964 27.9566C98.9815 28.4144 99.3741 29.0702 99.3741 29.9214C99.3741 30.7726 99.0483 31.4335 98.3967 31.9659C97.745 32.4982 96.853 32.7631 95.726 32.7631H91.5785V27.5863C92.6842 27.3729 93.9447 27.2674 95.3601 27.2674C96.4658 27.2674 97.4112 27.4963 98.1964 27.9541M90.9803 23.4176C89.5435 23.5565 88.2055 23.752 86.9663 24.0091V44.6468C87.674 44.7959 88.5366 44.9399 89.5542 45.0788C90.5717 45.2177 91.6453 45.3231 92.7723 45.3977C93.902 45.4723 94.9515 45.5108 95.9236 45.5108C97.7156 45.5108 99.286 45.2125 100.635 44.6159C101.983 44.0193 103.033 43.2272 103.786 42.2345C104.539 41.2444 104.916 40.1541 104.916 38.9608C104.916 37.9604 104.715 37.1349 104.317 36.4843C103.92 35.8362 103.409 35.3142 102.793 34.9181C102.173 34.5247 101.532 34.2418 100.87 34.0721C101.754 33.6246 102.488 32.9868 103.076 32.1562C103.661 31.3255 103.954 30.3791 103.954 29.3145C103.954 28.1212 103.594 27.0668 102.875 26.1513C102.157 25.2358 101.155 24.5183 99.8735 23.9937C98.589 23.4717 97.0854 23.2119 95.3628 23.2119C93.8806 23.2119 92.4198 23.2813 90.983 23.4202"
        fill="white" />
    <defs>
        <linearGradient id="paint0_linear_334_579" x1="0.435059" y1="19.0329" x2="69.2709"
            y2="19.0329" gradientUnits="userSpaceOnUse">
            <stop stop-color="white" />
            <stop offset="1" stop-color="white" />
            <stop offset="1" stop-color="white" />
            <stop offset="1" stop-color="white" />
        </linearGradient>
        <linearGradient id="paint1_linear_334_579" x1="0.434923" y1="30.9577" x2="69.2708"
            y2="30.9577" gradientUnits="userSpaceOnUse">
            <stop stop-color="white" />
            <stop offset="0.23" stop-color="white" />
            <stop offset="0.7" stop-color="white" />
            <stop offset="1" stop-color="white" />
        </linearGradient>
        <linearGradient id="paint2_linear_334_579" x1="0.435253" y1="58.8654" x2="69.2711"
            y2="58.8654" gradientUnits="userSpaceOnUse">
            <stop stop-color="white" />
            <stop offset="0.23" stop-color="white" />
            <stop offset="0.7" stop-color="white" />
            <stop offset="1" stop-color="white" />
        </linearGradient>
        <linearGradient id="paint3_linear_334_579" x1="0.435027" y1="54.275" x2="69.2709"
            y2="54.275" gradientUnits="userSpaceOnUse">
            <stop offset="1" stop-color="white" />
            <stop offset="1" stop-color="white" />
            <stop offset="1" stop-color="white" />
            <stop offset="1" stop-color="white" />
        </linearGradient>
        <linearGradient id="paint4_linear_334_579" x1="0.434903" y1="28.0466" x2="69.2708"
            y2="28.0466" gradientUnits="userSpaceOnUse">
            <stop stop-color="white" />
            <stop offset="0.23" stop-color="white" />
            <stop offset="0.7" stop-color="white" />
            <stop offset="1" stop-color="white" />
        </linearGradient>
    </defs>
</svg>
