<svg width="556" height="1536" viewBox="0 0 556 1536" fill="none" xmlns="http://www.w3.org/2000/svg">
    <path
        d="M-159.974 453.495C-150.929 456.185 -131.973 460.108 -117.644 462.273C-99.2266 466.215 -61.573 468.776 -33.5166 467.994C-13.2893 468.998 26.0825 462.712 54.4261 453.945C58.8312 452.991 67.4346 449.976 73.6133 447.215C80.9582 444.693 95.3804 436.775 105.798 429.533C105.872 429.479 106.023 429.357 106.136 429.268C112.848 425.124 124.273 414.343 131.646 405.189C135.244 401.055 141.804 391.949 146.312 384.858C147.521 383.003 149.788 379.076 151.373 376.092C152.728 373.58 155.232 368.382 156.971 364.491C161.842 355.274 167.862 335.131 170.43 319.517C171.467 311.777 172.176 296.465 172.005 285.319C172.007 285.201 171.994 284.976 171.965 284.805C172.174 271.138 164.731 245.875 155.341 228.376C153.026 223.577 147.337 214.331 142.646 207.724C139.583 203.391 132.747 195.053 127.382 189.081C110.583 169.033 69.2798 139.441 35.1377 123.001C23.9529 117.233 0.272357 107.657 -17.7727 101.606C-34.3594 102.779 -56.3825 95.203 -66.9595 84.6772C-68.8238 79.9095 -67.9873 71.2564 -65.0995 65.3463C-59.5734 53.9039 -48.0596 30.6241 -39.3867 13.3558C-39.1873 12.4459 -38.2405 11.0694 -37.2446 10.284C-27.8462 12.4318 -16.4166 15.6277 -11.7381 17.4149C-4.45757 20.166 10.3909 25.923 21.4188 30.2858C35.9974 35.7779 65.3725 48.0505 87.0132 57.7172C98.8277 62.7947 122.465 74.3005 139.827 83.3987C144.174 85.7046 152.885 90.7507 159.27 94.6848C163.628 97.3936 172.462 103.14 179.011 107.518C182.127 109.657 188.285 114.33 192.766 117.961C196.041 120.617 202.606 126.259 207.43 130.546C207.464 130.584 207.557 130.683 207.642 130.75C211.062 134.082 217.825 141.2 222.768 146.645C222.812 146.701 222.891 146.796 222.945 146.87C224.087 148.302 226.421 151.21 228.165 153.382C229.522 155.287 232.269 159.194 234.294 162.093C234.324 162.146 234.398 162.254 234.449 162.342C236.518 165.683 240.469 172.729 243.299 178.096C243.34 178.166 243.403 178.317 243.45 178.418C245.021 181.847 247.959 189.022 250 194.46C250.027 194.526 250.062 194.669 250.109 194.771C250.878 196.992 252.185 201.625 253.029 205.112C253.686 207.748 254.842 213.171 255.607 217.229C255.616 217.305 255.638 217.445 255.657 217.539C256.464 222.823 257.465 233.747 257.914 241.915C258.169 249.645 257.625 265.505 256.714 277.31C256.369 283.575 254.453 296.148 252.456 305.424C252.055 307.199 251.428 309.98 251.057 311.644C249.229 319.35 244.444 334.829 240.356 346.212C237.463 353.914 230.548 369.267 224.883 380.51C221.208 387.587 212.622 401.544 205.701 411.664C200.999 418.318 190.437 431.242 182.103 440.554C178.827 444.152 171.771 451.183 166.348 456.265C162.591 459.779 154.658 466.708 148.643 471.736C143.909 475.521 133.786 482.768 126.036 487.908C119.761 491.859 106.324 498.973 96.0203 503.8C90.4367 506.276 78.7223 510.725 69.8618 513.76C62.802 516.048 48.0254 519.647 36.8569 521.782C29.1363 523.107 13.1706 524.727 1.18958 525.415C-9.13034 525.821 -30.2377 525.115 -45.974 523.833C-74.4506 521.316 -131.913 511.654 -174.326 502.246C-181.116 503.361 -188.005 500.863 -189.716 496.684C-189.967 495.906 -190.11 494.282 -190.044 493.04C-195.959 471.64 -191.752 451.96 -180.661 449.063C-179.495 448.857 -177.179 449.063 -175.488 449.501C-170.319 450.841 -165.15 452.182 -159.998 453.473"
        fill="#004D66" />
    <path
        d="M-9.53862 158.322C-0.126515 162.133 18.6455 171.001 32.3977 178.139C35.6471 179.84 42.1048 183.615 46.84 186.574C50.077 188.597 56.5959 192.863 61.399 196.121C61.4607 196.167 61.574 196.242 61.6459 196.306C66.5998 199.886 76.2817 207.89 83.2703 214.164C83.3321 214.21 83.4518 214.316 83.5338 214.397C86.3687 217.202 92.0012 223.172 96.1296 227.732C96.1775 227.774 96.2659 227.887 96.3341 227.964C97.812 229.694 100.673 233.395 102.699 236.235C104.11 238.214 106.853 242.357 108.828 245.495C108.869 245.565 108.95 245.705 109.01 245.81C110.871 249.154 114.353 256.238 116.807 261.623C116.864 261.742 116.957 262.004 117.023 262.199C118.091 265.405 119.943 272.155 121.173 277.242C121.192 277.336 121.241 277.542 121.263 277.681C121.879 281.136 122.671 288.299 123.022 293.684C123.027 293.774 123.038 293.955 123.029 294.101C123.039 296.608 122.876 301.752 122.676 305.596C122.671 305.668 122.668 305.846 122.648 305.974C122.292 309.628 121.073 317.052 119.935 322.571C119.913 322.654 119.878 322.838 119.831 322.958C119.12 325.613 117.456 330.992 116.126 334.963C116.103 335.046 116.049 335.194 116.009 335.287C114.535 339.131 111.078 346.83 108.289 352.485C108.256 352.55 108.174 352.691 108.131 352.798C106.245 356.294 101.889 363.204 98.395 368.225C98.3451 368.301 98.2314 368.448 98.1428 368.558C96.4823 370.662 92.8976 374.859 90.1516 377.917C90.0879 377.989 89.9642 378.119 89.8829 378.201C87.994 380.051 83.9839 383.734 80.9387 386.415C80.8648 386.47 80.7273 386.596 80.6184 386.671C78.5288 388.274 74.1247 391.437 70.7737 393.71C70.6999 393.765 70.5421 393.856 70.4332 393.93C68.2342 395.223 63.6363 397.726 60.1439 399.532C60.0599 399.569 59.9022 399.66 59.7868 399.703C55.4791 401.676 46.3728 405.075 39.4396 407.278C32.9722 409.235 19.5258 412.405 9.41239 414.363C0.281282 416.14 -18.6218 418.159 -32.7947 418.897C-43.6246 419.27 -65.7268 418.461 -82.1702 417.108C-94.355 416.288 -118.994 412.502 -137.194 408.633C-159.788 415.354 -176.946 405.332 -175.521 386.24C-177.114 372.164 -171.059 359.026 -161.991 356.876C-159.968 356.514 -155.923 356.738 -152.951 357.372C-130.136 369.902 -79.7089 379.161 -40.3303 378.049C-35.175 378.333 -24.7523 377.599 -17.0337 376.392C-11.7041 375.804 -0.972381 373.419 6.92836 371.09C21.1409 369.652 41.4665 356.351 52.3304 341.359C53.434 339.95 55.3363 336.888 56.5775 334.524C59.3869 330.178 62.2718 320.518 63.024 312.954C64.099 306.232 61.9418 293.486 58.218 284.486C54.8847 275.797 44.3419 261.383 34.6539 252.296C31.1922 248.567 23.2946 242.035 17.0128 237.714C12.6781 234.477 3.38939 228.491 -3.75298 224.339C-7.81391 221.962 -16.2976 217.451 -22.7062 214.266C-31.3789 209.853 -49.5535 201.797 -63.2809 196.281C-69.4819 193.76 -82.2437 188.843 -91.8028 185.304C-106.385 189.503 -114.489 181.863 -109.898 168.214C-106.977 161.127 -101.381 146.606 -97.4108 135.769C-97.2511 134.123 -95.839 131.507 -94.264 129.943C-88.8502 129.927 -80.3878 131.364 -75.369 133.154C-70.045 134.966 -59.2176 138.86 -51.2015 141.852C-37.2054 147.085 -23.2638 152.465 -9.50728 158.315"
        fill="#004D66" />
    <path
        d="M164.451 707.431C156.019 709.307 142.98 712.23 135.307 713.983C129.74 715.292 118.336 717.201 109.814 718.253C103.907 719.337 91.8074 720.853 82.766 721.631C76.7169 722.47 64.3307 723.509 55.1246 723.961C49.4884 724.2 37.9474 724.739 29.3601 725.15C-15.8124 724.931 -108.235 720.026 -177.092 714.173C-186.053 717.581 -196.529 714.092 -200.469 706.397C-201.021 705.138 -201.508 702.473 -201.549 700.417C-208.319 679.055 -204.4 660.558 -192.815 659.082C-191.088 658.997 -187.687 659.523 -185.203 660.262C-156.228 668.886 -126.339 674.76 -104.599 676.644C-99.963 677.041 -96.1975 677.368 -96.1836 677.372C-96.156 677.379 -96.0831 677.384 -96.0241 677.385L-95.9273 677.411C-95.9273 677.411 -94.4189 677.534 -92.6818 677.688C-88.8784 678.04 -83.2892 678.53 -80.217 678.79C-60.7826 680.485 -21.097 680.937 8.43804 679.781C18.273 679.304 38.3319 677.728 53.2324 676.267C59.5354 675.2 72.3473 673.623 81.8692 672.766C81.9458 672.757 82.0989 672.739 82.2105 672.709C94.6131 671.112 119.499 665.791 137.785 660.821C147.798 658.242 168.004 651.86 182.896 646.558C184.873 645.872 188.881 644.353 191.842 643.146C195.037 642.342 197.573 644.103 197.489 647.074C197.11 662.978 197.093 679.024 197.229 687.093C197.31 691.546 197.125 695.498 196.82 695.92C196.262 696.674 195.494 697.714 194.936 698.468C194.631 698.89 192.145 699.869 189.399 700.66C184.434 702.101 174.511 704.896 164.444 707.4"
        fill="#004D66" />
    <path
        d="M165.943 600.312C105.782 626.829 -18.6574 638.48 -112 626.333C-127.637 622.854 -159.755 616.782 -183.755 612.767C-188.221 613.23 -194.39 610.199 -197.545 605.99C-198.764 604.344 -200.187 600.643 -200.722 597.714C-207.087 578.105 -203.512 556.581 -192.746 549.64C-187.547 549.21 -178.762 550.053 -173.123 551.519C-166.618 553.292 -153.221 556.555 -143.209 558.793C-100.575 576.56 -13.8602 581.196 50.4785 569.122C71.8407 567.272 111.031 552.98 138.006 537.207C147.371 533.729 163.103 522.472 173.147 512.032C177.052 501.386 191.598 489.411 205.651 485.307C208.515 483.244 211.702 484.127 212.785 487.278C211.257 498.013 208.752 514.385 207.215 523.828C206.503 534.946 204.046 557.555 201.737 574.305C199.306 592.06 180.365 595.107 165.954 600.271"
        fill="#004D66" />
    <path
        d="M36.9722 1399.44C46.4341 1396.38 64.97 1388.32 78.3646 1381.41C86.9439 1376.94 103.927 1366.88 116.303 1358.96C124.87 1353.98 140.514 1341.78 151.229 1331.71C155.094 1328.18 162.495 1320.48 167.749 1314.47C171.02 1310.56 177.299 1302.29 181.777 1295.97C184.444 1292.43 189.143 1284.74 192.288 1278.81C195.149 1273.66 199.988 1262.79 203.097 1254.51C207.238 1244.86 211.263 1224.64 212.069 1209.36C220.33 1179.19 207.082 1130.51 182.479 1100.65C180.806 1098.32 177.006 1093.87 173.982 1090.71C171.813 1088.41 167.138 1083.9 163.523 1080.64C159.659 1077.24 151.254 1070.95 144.751 1066.56C138.79 1063.43 127.001 1057.04 118.431 1052.3C118.304 1052.22 118.038 1052.1 117.825 1052.01C105.793 1046.42 80.1476 1039.7 60.5254 1036.99C50.7529 1035.41 30.5745 1033.56 15.4498 1032.87C5.41391 1032.49 -15.0555 1032.67 -30.2712 1033.26C-39.1809 1033.43 -57.3076 1034.71 -70.7657 1036.1C-89.2209 1037.5 -126.514 1043.05 -154.09 1048.51C-156.272 1048.97 -158.443 1047.55 -158.933 1045.35C-160.006 1040.61 -162.073 1030.96 -163.557 1023.78C-164.595 1018.8 -166.619 1008.65 -168.065 1001.11C-168.508 999.167 -167.292 997.062 -165.332 996.387C-157.329 993.566 -140.871 988.061 -128.578 984.108C-114.263 979.245 -84.2726 971.853 -61.5852 967.602C-55.1288 966.294 -41.7753 964.522 -31.7776 963.659C-24.6682 962.956 -10.0791 962.048 0.807011 961.631C17.6857 960.64 47.5788 961.522 67.59 963.608C69.3335 963.794 72.8832 964.152 75.5487 964.437C76.4772 964.567 78.3903 964.783 79.8084 964.911C79.8812 964.916 80.0269 964.925 80.1237 964.951C84.3463 965.564 92.9578 967.219 99.3335 968.646C109.126 970.87 128.783 976.878 143.235 982.069C151.363 985.033 167.455 992.398 179.179 998.533C183.799 1001.09 193.009 1006.82 199.739 1011.35C203.609 1014.1 211.184 1020.24 216.655 1025.04C216.717 1025.09 216.823 1025.19 216.905 1025.27C220.169 1028.35 226.481 1035.05 231.019 1040.24C233.979 1043.85 239.624 1051.54 243.647 1057.44C247.132 1062.85 253.559 1074.42 257.987 1083.29C260.963 1089.49 266.043 1102.67 269.34 1112.71C270.959 1118.23 273.623 1129.74 275.286 1138.41C276.241 1144.42 277.563 1156.85 278.236 1166.18C278.487 1172.32 278.257 1184.96 277.713 1194.4C277.708 1194.48 277.695 1194.63 277.683 1194.74C277.088 1200.77 275.107 1213.09 273.258 1222.26C273.239 1222.33 273.202 1222.46 273.173 1222.57C271.627 1229.01 267.678 1242.03 264.374 1251.65C262.726 1255.92 259.128 1264.59 256.343 1271C254.346 1275.36 249.953 1284.07 246.546 1290.47C242.073 1298.98 234.066 1312 228.654 1319.53C226.816 1322.07 223.467 1326.72 221.191 1329.9C220.81 1330.44 220.433 1330.96 220.227 1331.23C220.114 1331.38 220.131 1331.37 220.235 1331.2C220.402 1330.97 220.875 1330.31 221.298 1329.73C221.465 1329.49 221.629 1329.27 221.721 1329.14C221.767 1329.08 220.202 1331.11 218.242 1333.66C215.654 1337.24 207.294 1347.25 199.576 1356.03C194.978 1361.03 185.162 1370.89 177.652 1378.07C172.607 1382.79 161.978 1392.1 153.934 1398.83C149.516 1402.6 140.125 1409.88 132.951 1415.08C128.067 1418.65 117.836 1425.59 110.091 1430.6C96.9647 1439.93 68.2014 1455.07 45.838 1464.42C38.8455 1469.11 23.632 1476.39 11.8403 1480.68C5.10097 1484.98 -6.5219 1484.61 -14.1089 1479.85C-17.8637 1477.44 -22.9495 1470.75 -25.4765 1464.92C-30.5569 1459.16 -34.4869 1447.55 -34.2701 1439C-32.9767 1433.12 -25.7417 1425.37 -18.1169 1421.69C-0.283951 1413.1 18.5111 1406.56 36.9482 1399.42"
        fill="#004D66" />
    <path
        d="M120.948 923.546C116.474 922.377 107.251 920.128 100.361 918.519C96.2012 917.671 89.1843 916.591 84.6748 916.109C84.4009 916.08 83.8533 916.022 83.4476 915.987C82.7727 915.851 81.3898 915.703 80.3589 915.679C78.6154 915.493 76.8681 915.321 76.0051 915.223C75.5303 915.17 75.1108 915.132 75.0832 915.124C75.0417 915.113 74.9412 915.101 74.8508 915.107C73.6974 914.931 71.2882 914.686 69.4746 914.541C66.5683 914.325 60.6139 913.871 56.1954 913.546C52.1237 913.256 43.7827 912.858 37.5771 912.677C18.1254 910.77 -21.0952 912.399 -50.0203 916.312C-69.256 918.079 -107.492 926.432 -135.436 934.98C-143.673 937.456 -160.4 942.859 -172.819 947.06C-175.415 947.788 -177.852 946.319 -178.267 943.778C-180.428 931.046 -184.191 905.155 -186.663 885.953C-186.944 883.625 -185.287 881.534 -182.966 881.282C-180.42 881.016 -175.216 880.454 -171.341 880.04C-96.3414 865.679 57.9039 859.051 173.182 865.22C180.193 864.164 193.543 866.496 203.002 870.409C210.488 874.994 217.772 889.513 219.263 902.865C220.952 916.419 225.954 943.931 230.442 964.296C230.033 968.81 227.191 970.731 224.084 968.61C219.457 965.191 209.445 959.085 201.698 954.979C176.106 941.364 149.019 930.727 120.906 923.535"
        fill="#004D66" />
    <path
        d="M109.927 812.85C90.7424 812.215 51.7298 812.625 22.7886 813.777C-22.736 816.532 -115.566 824.707 -184.562 832.037C-185.984 832.589 -188.659 832.45 -190.539 831.724C-192.735 821.503 -194.923 807.875 -195.444 801.303C-196.116 793.357 -197.225 777.084 -197.906 764.971C-197.898 762.232 -195.81 760.302 -193.233 760.637C-176.334 763.001 -141.744 766.652 -115.976 768.77C-81.632 773.615 -11.3387 775.822 41.0365 773.717C58.6324 773.645 94.2634 770.314 120.621 766.305C129.164 765.171 146.445 761.962 159.236 759.135C169.153 752.767 185.489 748.934 195.723 750.564C204.044 764.917 209.51 787.826 207.905 801.727C208.35 804.766 206.914 810.013 204.704 813.452C187.199 815.119 162.92 815.742 150.48 814.824C136.992 813.833 123.485 813.193 109.931 812.836"
        fill="#004D66" />
    <path
        d="M-7.962 1165.04C-1.09747 1164.04 13.028 1163.64 23.558 1164.17C37.8704 1160.92 54.3217 1168.82 60.2907 1181.83C63.4695 1193.92 59.053 1212.06 50.4244 1222.36C35.8222 1238.92 0.70213 1261.41 -28.0335 1272.64C-55.1192 1296.01 -84.6415 1301.16 -93.9705 1284.15C-95.3984 1275.32 -90.9434 1266.66 -84.0336 1264.82C-70.2448 1265.24 -42.361 1260.07 -21.7177 1253.27C5.89108 1245.86 13.1075 1226.62 -5.59099 1210.29C-11.2562 1205.43 -23.7448 1202.65 -33.4675 1204.09C-41.0186 1206.28 -56.5259 1210.17 -68.1155 1212.77C-73.6229 1214.02 -84.8962 1216.6 -93.2833 1218.53C-99.3363 1226.41 -109.023 1225.89 -114.911 1217.39C-117.027 1213.73 -119.426 1205.87 -120.265 1199.82C-116.077 1193.21 -105.491 1186.05 -96.6205 1183.87C-67.3198 1176.61 -38.1318 1168.02 -7.98326 1165.07"
        fill="#004D66" />
    <path
        d="M-71.8408 1085.58C-60.3284 1084.26 -36.674 1082.6 -19.0182 1081.86C-13.2565 1081.6 -1.44968 1081.56 7.35261 1081.78C13.4513 1081.92 25.9268 1082.6 35.2246 1083.29C39.2077 1083.69 47.3543 1084.71 53.4236 1085.56C57.576 1086.21 65.9866 1087.85 72.2 1089.21C77.5809 1090.54 88.4439 1093.97 96.4407 1096.87C96.5237 1096.89 96.6822 1096.96 96.7892 1097C99.9855 1098.35 106.411 1101.36 111.156 1103.73C111.235 1103.76 111.39 1103.85 111.503 1103.93C114.289 1105.53 119.873 1109.03 123.977 1111.74C124.062 1111.81 124.224 1111.93 124.333 1112.02C127.313 1114.28 133.221 1119.33 137.54 1123.29C137.632 1123.39 137.83 1123.59 137.98 1123.75C140.689 1126.64 145.612 1133.1 148.982 1138.17C150.135 1140 152.246 1143.9 153.714 1146.89C154.917 1149.64 157.032 1155.41 158.442 1159.78C158.465 1159.86 158.51 1160.02 158.55 1160.15C159.277 1162.96 160.547 1168.79 161.39 1173.16C161.413 1173.24 161.445 1173.4 161.443 1173.52C162.107 1178.01 162.931 1187.27 163.283 1194.2C163.292 1194.27 163.283 1194.42 163.284 1194.52C163.303 1197.94 163.105 1204.98 162.836 1210.25C162.817 1210.32 162.822 1210.46 162.81 1210.56C162.639 1212.64 162.082 1216.88 161.55 1220.02C161.206 1222.08 160.341 1226.25 159.633 1229.34C159.61 1229.42 159.566 1229.58 159.533 1229.71C158.711 1232.5 156.797 1238.15 155.265 1242.32C155.242 1242.4 155.184 1242.56 155.123 1242.68C153.88 1245.55 151.134 1251.32 148.972 1255.57C148.936 1255.65 148.854 1255.79 148.796 1255.89C146.441 1260.09 141.113 1268.42 136.879 1274.49C136.833 1274.55 136.74 1274.67 136.669 1274.77C134.532 1277.55 129.935 1283.09 126.419 1287.14C126.373 1287.2 126.266 1287.32 126.182 1287.42C122.689 1291.11 115.064 1298.27 109.155 1303.4C109.112 1303.44 109 1303.53 108.908 1303.6C103.135 1308.27 90.7154 1317.07 81.1558 1323.27C75.6817 1326.66 64.2479 1333.22 55.5956 1337.91C49.8951 1340.93 38.0813 1346.75 29.2056 1350.89C20.2992 1355.2 1.66676 1363.01 -12.4167 1368.34C-31.6406 1387.98 -52.4274 1392.16 -58.816 1377.68C-76.8786 1363.17 -78.552 1342.93 -62.5693 1332.45C-59.2927 1330.67 -52.1656 1328.3 -46.6628 1327.12C7.54434 1327.58 73.4283 1286.4 100.487 1235.14C102.281 1232.09 105.164 1225.43 106.929 1220.22C113.608 1207.13 113.303 1182.33 106.249 1164.85C102.696 1151.51 86.2503 1133.96 69.5109 1125.63C56.9354 1119.14 30.5255 1114.11 10.5023 1114.39C-8.66739 1114.91 -46.7184 1120.91 -74.4953 1127.79C-86.5164 1128.79 -108.821 1134.65 -124.319 1140.89C-125.981 1142.22 -129.503 1142.93 -132.183 1142.47C-137.917 1127.26 -144.067 1108.89 -145.9 1101.47C-146.441 1099.11 -144.989 1096.85 -142.659 1096.39C-138.3 1095.5 -129.35 1093.79 -122.67 1092.59C-105.796 1089.85 -88.8818 1087.34 -71.8583 1085.59"
        fill="#004D66" />
</svg>
