<svg width="1455" height="1517" viewBox="0 0 1455 1517" fill="none"
	xmlns="http://www.w3.org/2000/svg">
	<g>
		<path
			d="M-244.283 1865.79C-252.343 1830.34 -262.765 1756.57 -267.523 1700.97C-278.075 1629.24 -278.593 1483.9 -268.624 1376.31C-267.458 1298.37 -233.537 1148.63 -192.818 1041.91C-188.059 1025.18 -174.335 992.937 -162.197 969.858C-150.674 942.248 -116.655 888.84 -86.229 850.613C-86.0025 850.321 -85.517 849.771 -85.1286 849.35C-67.5203 824.588 -23.273 783.351 13.7239 757.294C30.5229 744.509 67.1315 721.527 95.486 705.99C102.898 701.782 118.564 694.046 130.443 688.705C140.445 684.109 161.031 675.758 176.406 670.029C213.079 653.618 291.928 635.459 352.522 629.471C382.527 627.399 441.534 628.5 484.292 631.931C484.745 631.931 485.619 632.093 486.267 632.222C538.833 634.812 634.06 669.673 698.958 710.101C716.858 720.2 750.941 744.347 775.12 763.995C791.013 776.845 821.374 805.167 842.964 827.275C915.825 896.803 1019.21 1062.85 1073.94 1198.12C1093.3 1242.53 1124.21 1335.91 1142.98 1406.77C1134.34 1470.21 1158 1556.7 1195.78 1599.98C1213.61 1608.33 1247.08 1607.26 1270.48 1597.61C1315.8 1579.2 1408.08 1540.74 1476.64 1511.71C1480.16 1511.19 1485.7 1507.86 1488.97 1504.26C1483.04 1467.59 1473.63 1422.95 1467.9 1404.5C1459.16 1375.82 1440.71 1317.37 1426.69 1273.93C1409.21 1216.54 1369.34 1100.66 1337.61 1015.08C1321.04 968.434 1282.72 874.727 1252.03 805.782C1244.26 788.498 1227.01 753.766 1213.48 728.26C1204.13 710.813 1184.25 675.434 1169.11 649.248C1161.66 636.754 1145.22 611.927 1132.4 593.801C1123.01 580.53 1102.98 553.923 1087.67 534.308C1087.51 534.146 1087.18 533.757 1086.96 533.434C1074.98 519.483 1049.34 491.711 1029.63 471.383C1029.44 471.221 1029.08 470.865 1028.82 470.639C1023.61 465.913 1012.99 456.202 1005.06 448.952C998.072 443.255 983.765 431.764 973.116 423.251C972.922 423.089 972.501 422.798 972.21 422.604C959.91 413.832 933.821 396.871 913.915 384.7C913.624 384.539 913.073 384.247 912.685 384.02C899.9 377.158 873.034 364.082 852.674 354.857C852.415 354.759 851.898 354.533 851.509 354.371C843.158 350.875 825.679 344.693 812.473 340.55C802.504 337.378 781.95 331.616 766.543 327.667C766.284 327.602 765.733 327.473 765.345 327.408C745.212 323.006 703.522 316.403 672.222 312.68C642.54 309.767 581.526 307.89 535.92 308.505C511.805 308.278 462.962 312.486 426.839 317.892C419.944 318.992 409.069 320.708 402.563 321.711C372.525 326.825 311.867 341.391 267.07 354.241C236.773 363.434 176.05 386.221 131.447 405.157C103.319 417.522 47.5811 447.042 6.99134 471.092C-19.7124 487.503 -72.0518 524.856 -109.858 554.57C-124.488 566.255 -153.263 591.6 -174.109 611.183C-188.545 624.745 -217.126 653.488 -237.939 675.369C-253.67 692.622 -283.999 729.716 -305.685 758.2C-322.452 781.344 -353.137 831.224 -374.209 869.548C-385.084 890.393 -405.12 934.285 -418.974 967.56C-429.558 994.102 -447.005 1049.97 -457.977 1092.37C-464.969 1121.7 -475.165 1182.65 -480.765 1228.48C-484.908 1268 -487.432 1349.35 -486.397 1410.13C-483.807 1520.19 -460.955 1743.37 -435.32 1908.67C-441.276 1934.47 -433.443 1961.56 -417.776 1969.2C-414.863 1970.34 -408.648 1971.31 -403.89 1971.34C-323.164 1999.4 -246.452 1988.14 -232.566 1946.19C-231.497 1941.79 -231.659 1932.82 -232.954 1926.19C-236.838 1905.99 -240.69 1885.82 -244.348 1865.66"
			fill="#004D66" />
		<path
			d="M927.186 1361.13C914.886 1324.03 885.463 1249.68 861.478 1195.08C855.749 1182.2 842.867 1156.4 832.671 1137.49C825.711 1124.58 810.919 1098.46 799.623 1079.17C799.493 1078.94 799.202 1078.49 799.008 1078.16C786.449 1058.22 758.159 1019.06 735.76 990.639C735.599 990.412 735.21 989.927 734.886 989.603C724.82 978.015 703.295 954.872 686.787 937.878C686.626 937.684 686.237 937.328 685.946 937.069C679.666 930.919 666.136 919.072 655.714 910.559C648.463 904.636 633.218 893.08 621.663 884.729C621.404 884.567 620.853 884.211 620.465 883.92C608.068 875.957 581.753 860.776 561.652 850.03C561.199 849.803 560.26 849.383 559.516 849.059C547.442 844.171 522.001 835.367 502.71 829.411C502.354 829.282 501.609 829.088 501.059 828.958C487.95 825.721 460.631 820.931 440.012 818.244C439.656 818.212 438.944 818.147 438.426 818.115C428.781 817.467 408.971 816.788 394.179 816.593C393.888 816.593 393.208 816.593 392.69 816.593C378.578 817.079 349.705 819.863 328.213 822.873C327.889 822.873 327.209 823.035 326.692 823.132C316.334 825.236 295.262 830.285 279.628 834.396C279.337 834.461 278.754 834.623 278.333 834.784C263.218 839.478 232.759 850.872 210.328 860.194C210.037 860.323 209.486 860.55 209.066 860.744C195.147 867.121 167.537 882.14 147.372 894.31C147.08 894.504 146.465 894.893 146.045 895.216C137.532 901.108 120.539 913.796 108.077 923.604C107.818 923.798 107.268 924.251 106.912 924.607C99.3051 931.404 84.1891 945.873 73.1192 956.943C72.8603 957.202 72.4071 957.72 72.051 958.108C65.3508 965.715 52.1446 981.899 42.5313 994.199C42.3047 994.458 41.9162 995.041 41.5926 995.462C36.09 1003.59 25.3114 1020.64 17.543 1033.59C17.3488 1033.88 17.0252 1034.5 16.7986 1034.95C8.15633 1051.01 -7.15386 1085.15 -17.3499 1111.21C-26.4454 1135.58 -41.982 1186.44 -52.0162 1224.79C-61.1116 1259.46 -73.6057 1331.58 -79.9176 1385.86C-84.0283 1427.39 -86.4235 1512.55 -85.2906 1576.02C-85.1936 1623.05 -76.7455 1718.64 -66.3877 1789.56C-97.8171 1874.69 -63.5393 1943.11 10.1306 1942.4C63.7971 1952.02 115.813 1932.04 126.332 1897.73C128.21 1890.06 128.372 1874.46 126.656 1862.87C84.189 1772.08 61.143 1576.02 75.1584 1424.99C75.3526 1405.12 80.7905 1365.24 87.2964 1335.91C90.8893 1315.55 102.704 1274.93 113.644 1245.15C122.707 1190.87 178.898 1116.1 239.136 1078.1C244.832 1074.21 257.068 1067.68 266.454 1063.47C283.836 1053.73 321.674 1045.05 350.968 1044.08C377.024 1041.62 425.479 1053.05 459.174 1069.59C491.737 1084.54 544.497 1128.66 576.994 1168.15C590.46 1182.39 613.571 1214.34 628.622 1239.52C639.983 1256.97 660.699 1294.16 674.843 1322.64C682.936 1338.83 698.181 1372.52 708.83 1397.93C723.622 1432.37 750.035 1504.2 767.87 1558.32C776.026 1582.76 791.725 1633.06 802.957 1670.67C783.18 1725.66 810.563 1758.68 864.132 1744.47C892.066 1734.99 949.261 1717.12 991.922 1704.53C998.299 1704.3 1008.66 1699.54 1015.1 1693.88C1016.49 1673.1 1013.06 1640.21 1007.43 1620.47C1001.79 1599.56 989.494 1556.99 980.011 1525.43C963.406 1470.34 946.186 1415.44 927.153 1361.13"
			fill="#004D66" />
	</g>
</svg>
