<svg width="1190" height="287" viewBox="0 0 1190 287" fill="none" xmlns="http://www.w3.org/2000/svg">
    <mask id="mask0_315_584" style="mask-type:luminance" maskUnits="userSpaceOnUse" x="490" y="0"
        width="883" height="288">
        <path d="M490.848 0H1372.36V287.273H490.848V0Z" fill="white" />
    </mask>
    <g mask="url(#mask0_315_584)">
        <path
            d="M969.757 298.24H873.458C867.051 295.674 860.342 293.673 853.53 292.043C853.416 292.015 853.301 291.997 853.187 291.978C846.395 291.061 839.24 290.126 832.158 290.126C831.535 290.126 830.901 290.126 830.278 290.144C819.654 290.413 809.321 291.821 799.123 294.507C796.371 295.229 793.609 296.017 790.899 296.906C789.611 297.323 788.323 297.767 787.056 298.24H718.859C721.486 295.702 724.176 293.229 726.948 290.793C730.843 287.625 734.758 284.494 738.85 281.521C742.723 278.715 746.701 276.056 750.73 273.444C757.677 269.248 764.77 265.386 772.102 261.764C779.465 258.476 786.911 255.559 794.585 252.9C802.582 250.446 810.619 248.343 818.823 246.491C826.768 244.99 834.723 243.805 842.802 242.925C843.955 242.832 845.513 242.721 847.07 242.601C850.809 242.341 854.558 242.258 858.307 242.258C860.924 242.258 863.551 242.295 866.168 242.341C874.123 242.749 881.964 243.443 889.846 244.49C895.246 245.416 900.563 246.519 905.87 247.797L906.077 247.852C908.705 248.63 911.311 249.445 913.907 250.353C916.161 251.14 918.342 252.03 920.533 252.928L920.73 253.021C924.168 254.669 927.501 256.392 930.824 258.208L931.022 258.328C934.335 260.431 937.543 262.598 940.711 264.858L940.856 264.969C942.601 266.405 944.46 267.776 946.101 269.304C947.388 270.517 948.676 271.722 949.974 272.926L950.099 273.055C953.277 276.418 956.33 279.817 959.31 283.318L959.424 283.457C961.854 286.671 964.233 289.867 966.476 293.182C967.608 294.85 968.688 296.535 969.747 298.24"
            fill="#00303D" />
        <path
            d="M593.15 298.24H558.018C558.465 296.804 558.911 295.378 559.337 293.933C560.801 288.959 562.764 284.05 564.488 279.141C566.347 274.723 568.746 268.489 571.487 262.357C574.063 256.578 576.825 250.918 579.639 245.24C580.751 244.703 581.509 244.333 582.609 243.796C593.337 245.268 604.013 246.546 614.636 247.612C616.62 247.806 617.731 249.742 616.745 251.289C615.675 252.947 614.636 254.623 613.66 256.318C608.79 264.738 604.22 273.231 600.077 281.957C597.543 287.31 595.289 292.747 593.15 298.231"
            fill="#00303D" />
        <path
            d="M1043.13 298.24H1006.76C1002.1 289.098 996.8 280.243 990.6 271.833C975.864 251.835 955.468 233.153 929.838 224.798C928.135 224.242 926.411 223.733 924.666 223.279C922.61 222.733 920.45 222.223 918.809 220.991C915.32 218.37 916.763 214.943 920.481 213.6C928.851 210.58 937.98 207.542 947.118 207.542C949.964 207.542 952.809 207.839 955.644 208.515C963.62 210.432 970.308 215.184 976.466 220.084C1004.01 241.989 1025.98 269.045 1043.13 298.23"
            fill="#00303D" />
        <path
            d="M1117.6 298.24H1080.02C1073.68 286.097 1066.83 274.148 1058.66 262.894C1056.91 260.449 1054.56 257.198 1052.21 253.947C1052.13 253.836 1052.05 253.715 1051.95 253.595C1051.74 253.289 1051.52 252.984 1051.3 252.687C1046.83 246.611 1041.49 240.498 1036.2 234.385C1028.89 225.928 1020.6 218.157 1012.66 210.21L1012.47 210.043C1006.29 205.032 1000.15 199.975 993.975 194.964C988.211 190.287 999.271 187.869 1002.65 186.508C1009.44 183.757 1016.2 180.959 1022.95 178.116C1023.34 177.949 1023.75 177.875 1024.15 177.875C1025.14 177.875 1026.09 178.338 1026.58 179.144C1030.07 184.692 1033.27 190.379 1036.33 196.14C1038.38 200.077 1040.39 204.041 1042.35 208.015C1044.01 211.377 1045.94 214.415 1048.93 216.99C1051.28 219.009 1054.08 220.797 1057.17 221.806C1059.07 222.418 1061.19 222.946 1063.27 222.946C1064.12 222.946 1064.98 222.853 1065.8 222.649C1068.69 221.918 1070.82 220.084 1072.37 217.824C1075.6 213.072 1076.33 206.598 1074.66 201.281C1073.36 197.178 1071.08 193.232 1069.08 189.36C1066.95 185.192 1064.78 181.043 1062.53 176.93C1060.59 173.392 1058.57 169.882 1056.45 166.427C1055.68 165.195 1056.2 163.648 1057.61 163.027C1066.73 158.952 1075.91 155.284 1084.82 150.773C1087.83 149.245 1090.43 148.124 1092.34 148.124C1094.69 148.124 1095.95 149.838 1095.59 154.645C1093.63 180.005 1094.97 205.597 1099.03 230.754C1100.4 239.257 1102.06 247.75 1104.25 256.124C1106.51 264.765 1108.77 273.426 1111.72 281.91C1113.61 287.338 1115.56 292.784 1117.58 298.24"
            fill="#00303D" />
        <path
            d="M677.081 298.24H628.521C632.8 288.681 637.587 279.308 642.935 270.128C647.671 261.978 651.43 250.983 663.466 250.974H663.695C668.721 250.974 673.747 251.196 678.763 251.409C683.789 251.631 688.816 251.854 693.863 251.854C695.098 251.854 696.334 251.844 697.57 251.807C701.984 251.696 709.284 250.344 715.318 250.344C718.08 250.344 720.583 250.631 722.411 251.446C724.425 252.345 723.792 254.41 723.086 255.846C719.067 263.849 709.907 268.044 702.347 272.981C694.496 278.103 688.369 285.013 682.408 291.812C680.57 293.905 678.794 296.054 677.091 298.231"
            fill="#00303D" />
        <path
            d="M1190.33 298.24H1152.33C1145.94 281.438 1140.3 264.395 1136.02 247.056C1132.72 224.872 1130.02 202.939 1128.52 180.524C1128.31 177.393 1128.01 174.189 1127.69 170.937C1126.54 158.804 1125.34 146.059 1129.24 134.675C1131.86 127.015 1139.58 124.635 1146.9 121.059C1166.26 111.621 1185.66 102.248 1205.23 93.1797C1215.66 88.354 1226.13 83.6116 1236.66 78.9712C1239.12 77.8875 1243.63 76.6093 1246.56 76.6093C1249.48 76.6093 1250.93 77.9523 1246.73 82.2037C1214.65 114.78 1192.93 155.201 1185.91 198.178C1185.18 202.615 1184.42 207.033 1183.91 211.497C1182.72 221.918 1182.08 232.255 1181.92 242.999V243.23C1183.48 261.69 1186.02 280.123 1190.31 298.249"
            fill="#00303D" />
        <path
            d="M523.831 298.24H494.743C495.324 294.238 495.864 290.228 496.352 286.226C497.339 278.15 498.138 270.064 498.699 261.978C499.218 254.521 494.961 233.848 504.525 229.893C506.509 229.068 508.731 228.92 510.943 228.92C511.504 228.92 512.075 228.929 512.625 228.939C522.024 229.115 545.255 227.716 545.587 240.313C545.753 246.519 538.982 255.466 536.583 261.283C533.54 268.646 530.788 276.112 528.306 283.633C526.707 288.477 525.222 293.34 523.831 298.231"
            fill="#00303D" />
    </g>
    <mask id="mask1_315_584" style="mask-type:luminance" maskUnits="userSpaceOnUse" x="0" y="193"
        width="484" height="95">
        <path d="M483.413 287.18H0.931122L42.8237 227.281L483.413 193.584V287.18Z" fill="white" />
    </mask>
    <g mask="url(#mask1_315_584)">
        <path
            d="M1.94867 298.657H98.2477C104.655 296.091 111.364 294.09 118.176 292.46C118.29 292.432 118.405 292.414 118.519 292.395C125.311 291.478 132.466 290.543 139.548 290.543C140.171 290.543 140.805 290.543 141.428 290.561C152.052 290.83 162.385 292.238 172.583 294.924C175.335 295.646 178.097 296.434 180.818 297.323C182.106 297.74 183.393 298.184 184.66 298.657H252.868C250.241 296.119 247.551 293.646 244.778 291.21C240.884 288.042 236.969 284.911 232.877 281.938C229.004 279.131 225.026 276.473 220.997 273.861C214.049 269.665 206.957 265.803 199.625 262.181C192.262 258.893 184.816 255.976 177.142 253.317C169.145 250.863 161.107 248.76 152.903 246.908C144.959 245.407 137.004 244.222 128.925 243.342C127.772 243.249 126.214 243.138 124.656 243.017C120.918 242.758 117.169 242.675 113.42 242.675C110.803 242.675 108.176 242.712 105.559 242.758C97.6038 243.166 89.7632 243.86 81.8811 244.907C76.481 245.833 71.1639 246.935 65.8468 248.214L65.6392 248.269C63.0118 249.047 60.4052 249.862 57.809 250.77C55.5554 251.557 53.3746 252.447 51.1834 253.345L50.9861 253.438C47.5487 255.086 44.2151 256.809 40.892 258.625L40.6947 258.745C37.3819 260.848 34.173 263.015 31.0056 265.275L30.8602 265.386C29.1155 266.822 27.2566 268.193 25.6158 269.721C24.3281 270.934 23.0404 272.138 21.7422 273.342L21.6176 273.472C18.4399 276.834 15.3867 280.234 12.4062 283.735L12.292 283.874C9.86194 287.088 7.48383 290.283 5.2303 293.599C4.09834 295.267 3.01833 296.952 1.95908 298.657"
            fill="#00303D" />
        <path
            d="M381.111 298.156H416.243C415.797 296.721 415.35 295.294 414.924 293.849C413.46 288.875 411.497 283.966 409.773 279.057C407.914 274.639 405.516 268.406 402.774 262.274C400.199 256.494 397.436 250.835 394.622 245.157C393.511 244.62 392.753 244.249 391.652 243.712C380.924 245.185 370.249 246.463 359.625 247.528C357.641 247.723 356.53 249.658 357.517 251.205C358.586 252.863 359.625 254.54 360.601 256.235C365.471 264.654 370.041 273.148 374.184 281.873C376.718 287.227 378.972 292.664 381.111 298.147"
            fill="#00303D" />
        <path
            d="M297.181 298.156H345.74C341.462 288.598 336.674 279.224 331.326 270.045C326.591 261.894 322.831 250.9 310.795 250.89H310.567C305.54 250.89 300.514 251.113 295.498 251.326C290.472 251.548 285.446 251.77 280.399 251.77C279.163 251.77 277.927 251.761 276.691 251.724C272.278 251.613 264.977 250.261 258.943 250.261C256.181 250.261 253.678 250.548 251.851 251.363C249.836 252.261 250.469 254.327 251.176 255.762C255.194 263.765 264.354 267.961 271.914 272.898C279.765 278.02 285.892 284.93 291.853 291.728C293.691 293.822 295.467 295.971 297.17 298.147"
            fill="#00303D" />
        <path
            d="M450.431 298.157H479.519C478.937 294.155 478.397 290.145 477.909 286.143C476.922 278.066 476.123 269.98 475.562 261.894C475.043 254.438 479.3 233.764 469.736 229.809C467.752 228.985 465.53 228.837 463.318 228.837C462.757 228.837 462.186 228.846 461.636 228.855C452.237 229.031 429.006 227.633 428.674 240.23C428.508 246.435 435.279 255.383 437.678 261.2C440.721 268.563 443.473 276.029 445.955 283.55C447.554 288.394 449.039 293.257 450.431 298.147"
            fill="#00303D" />
    </g>
</svg>
