<svg width="737" height="1688" viewBox="0 0 737 1688" fill="none" xmlns="http://www.w3.org/2000/svg">
	<g>
		<path
			d="M1166.46 1005.89C1152.84 1005.52 1124.94 1007.05 1104.16 1009.38C1077.03 1010.72 1023.53 1021.17 984.717 1032.67C956.15 1038.78 903.556 1062.17 867.275 1084.92C861.464 1087.89 850.604 1095.27 843.024 1101.43C833.708 1107.67 816.55 1124.08 804.727 1138.05C804.631 1138.16 804.465 1138.37 804.355 1138.55C796.534 1146.83 784.618 1166.1 777.724 1181.61C774.241 1188.72 768.467 1203.84 764.835 1215.41C763.842 1218.45 762.134 1224.76 761.027 1229.52C760.071 1233.52 758.496 1241.7 757.53 1247.78C754.16 1262.46 753.259 1292.78 755.489 1315.49C756.913 1326.67 761.626 1348.28 766.021 1363.76C766.065 1363.91 766.176 1364.23 766.259 1364.45C771.057 1383.59 790.835 1416.03 810.429 1436.94C815.439 1442.78 826.803 1453.57 835.808 1461C841.696 1465.91 854.313 1475 864.037 1481.31C894.933 1503.02 963.538 1528.91 1017.27 1539.15C1035.02 1543.02 1071.61 1547.57 1099.04 1549.32C1121.74 1541.52 1155.27 1543.89 1173.94 1554.64C1178.3 1560.6 1180.37 1572.95 1178.54 1582.28C1175.1 1600.27 1167.68 1637.01 1162.02 1664.33C1162.08 1665.66 1161.26 1667.94 1160.18 1669.4C1146.25 1669.91 1129.16 1669.68 1121.94 1668.94C1110.75 1667.82 1087.91 1665.29 1070.91 1663.31C1048.54 1661.07 1003 1654.88 969.216 1649.46C950.864 1646.77 913.602 1639.53 886.008 1633.28C879.075 1631.68 865.052 1627.86 854.699 1624.77C847.6 1622.61 833.133 1617.88 822.394 1614.21C817.248 1612.38 806.914 1608.17 799.311 1604.77C793.745 1602.28 782.5 1596.87 774.18 1592.68C774.113 1592.64 773.935 1592.53 773.82 1592.49C767.804 1589.12 755.731 1581.7 746.819 1575.95C746.733 1575.89 746.603 1575.79 746.468 1575.71C744.357 1574.15 740.006 1570.93 736.76 1568.56C734.167 1566.41 728.88 1561.99 724.993 1558.69C724.93 1558.62 724.781 1558.5 724.675 1558.4C720.551 1554.53 712.4 1546.17 706.486 1539.73C706.404 1539.64 706.264 1539.46 706.139 1539.34C702.674 1535.15 695.906 1526.21 691.036 1519.41C690.978 1519.32 690.862 1519.15 690.765 1519.01C688.874 1516.2 685.311 1510.22 682.838 1505.68C680.944 1502.25 677.309 1495.11 674.75 1489.73C674.716 1489.65 674.629 1489.46 674.556 1489.32C671.482 1482.25 665.993 1467.41 662.34 1456.16C659.102 1445.47 653.949 1423.18 650.838 1406.37C648.984 1397.52 646.979 1379.25 646.34 1365.58C646.228 1362.97 646.062 1358.86 645.975 1356.37C645.643 1344.96 646.579 1321.59 648.038 1304.2C649.201 1292.41 653.149 1268.41 656.85 1250.64C659.347 1239.4 666.119 1216.75 671.997 1200.08C676.067 1189.08 685.992 1167.12 694.168 1151.05C697.406 1144.81 704.615 1132.4 710.28 1123.3C714.203 1117 722.696 1104.4 729.209 1095.17C734.423 1088.12 745.825 1074.27 754.712 1064.24C762.003 1056.38 778.094 1041.48 790.67 1030.92C797.529 1025.39 812.224 1014.82 823.433 1007.31C832.415 1001.5 851.702 991.008 866.474 983.866C876.76 979.157 898.415 970.947 914.863 965.552C929.1 961.143 958.809 954.285 981.244 950.235C1021.91 943.155 1105.63 935.29 1168.29 932.638C1177.33 928.557 1187.86 929.473 1191.83 934.679C1192.45 935.673 1193.27 937.874 1193.62 939.635C1209.84 967.253 1211.31 996.269 1196.89 1004.42C1195.33 1005.14 1192.03 1005.71 1189.5 1005.74C1181.8 1005.78 1174.09 1005.84 1166.42 1005.98"
			fill="#00303D" />
		<path
			d="M619.535 772.422C630.593 766.695 647.71 757.746 657.759 752.468C665.023 748.562 680.242 741.682 691.731 737.059C699.553 733.362 715.89 726.75 728.19 722.311C736.329 718.9 753.205 712.841 765.881 708.774C773.655 706.337 789.557 701.309 801.352 697.542C864.426 681.056 995.181 653.565 1093.38 636.135C1104.63 628.054 1120.53 629.024 1128.9 638.28C1130.14 639.818 1131.81 643.38 1132.63 646.204C1150.01 673.477 1151.43 700.715 1135.82 707.07C1133.45 707.827 1128.52 708.355 1124.77 708.27C1081.15 707.03 1037.28 709.921 1006.25 715.376C999.644 716.548 994.255 717.485 994.231 717.481C994.183 717.471 994.078 717.5 993.997 717.534L993.843 717.554C993.843 717.554 991.702 717.932 989.231 718.344C983.794 719.272 975.824 720.675 971.441 721.436C943.693 726.288 888.178 740.419 847.415 752.981C833.868 757.301 806.5 766.957 786.242 774.519C777.846 778.353 760.547 785.3 747.615 790.039C747.51 790.068 747.314 790.179 747.151 790.246C730.446 797.085 697.725 813.735 674.066 827.477C661.054 834.789 635.254 851.2 616.437 864.122C613.937 865.824 608.924 869.423 605.216 872.208C601.056 874.506 596.87 872.99 595.864 868.835C590.467 846.52 584.533 824.149 581.346 812.946C579.57 806.748 578.367 801.185 578.627 800.49C579.12 799.242 579.808 797.509 580.306 796.238C580.591 795.547 583.677 793.263 587.211 791.116C593.617 787.266 606.408 779.687 619.53 772.446"
			fill="#00303D" />
		<path
			d="M657.306 922.304C731.351 862.981 900.557 800.495 1035.26 782.739C1058.36 781.782 1105.41 778.317 1140.39 774.978C1146.44 772.677 1156.17 774.607 1162.13 779.307C1164.44 781.128 1167.79 785.766 1169.64 789.664C1185.83 814.637 1188.84 845.97 1176.4 859.642C1169.3 862.163 1156.74 864.26 1148.34 864.309C1138.61 864.248 1118.72 864.689 1103.91 865.276C1037.84 856.357 915.172 882.119 829.945 922.849C800.836 933.384 751.501 967.868 719.737 999.865C707.971 1008.19 690.207 1029.74 680.08 1048.02C678.611 1064.31 662.758 1086.4 644.695 1097.38C641.481 1101.33 636.682 1101.29 634.005 1097.28C632.141 1081.73 629.537 1057.99 628.17 1044.23C625.03 1028.46 620.04 996.042 617.032 971.829C613.83 946.185 639.106 934.874 657.277 922.323"
			fill="#00303D" />
		<path
			d="M539.916 -239.725C527.86 -231.952 505.03 -213.791 488.9 -199.198C478.586 -189.764 458.646 -169.444 444.327 -153.799C434.228 -143.677 416.959 -120.843 405.766 -102.844C401.685 -96.4977 394.236 -82.994 389.151 -72.6622C386.055 -65.9991 380.376 -52.1241 376.461 -41.663C374.056 -35.7358 370.347 -23.2679 368.201 -13.8298C366.142 -5.59463 363.42 11.3731 362.161 24.0466C359.972 39.0524 361.887 68.727 366.451 90.3316C366.141 135.453 402.74 198.401 448.163 230.887C451.357 233.528 458.318 238.301 463.706 241.57C467.594 243.974 475.796 248.516 482.036 251.754C488.689 255.047 502.754 260.686 513.435 264.394C522.926 266.55 541.74 271.077 555.464 274.509C555.68 274.552 556.088 274.631 556.404 274.668C575.276 278.012 613.537 277.856 641.899 274.319C656.125 272.895 684.961 267.957 706.291 263.318C720.418 260.107 748.901 252.263 769.917 245.795C782.269 242.237 807.096 233.726 825.339 226.791C850.549 217.982 900.501 196.389 936.922 178.521C939.796 177.067 943.349 178.26 944.852 181.143C948.099 187.33 954.582 200.025 959.329 209.492C962.631 216.038 969.222 229.451 974.049 239.406C975.397 241.936 974.481 245.341 971.986 247.019C961.868 253.926 940.965 267.71 925.295 277.788C907.141 289.869 868.075 311.327 838.014 325.709C829.49 329.941 811.527 337.355 797.911 342.283C788.239 345.892 768.25 352.586 753.218 357.238C730.051 364.903 688.02 374.777 659.341 379.298C656.85 379.682 651.734 380.498 647.955 381.103C646.604 381.261 643.859 381.67 641.823 382.019C641.718 382.048 641.512 382.082 641.363 382.078C635.245 382.798 622.642 383.693 613.205 384.062C598.702 384.61 569.05 383.538 546.978 381.659C534.543 380.546 509.355 376.265 490.724 372.072C483.315 370.224 468.344 365.652 457.284 361.845C450.855 359.442 438.032 353.697 428.583 349.035C428.492 348.993 428.29 348.878 428.155 348.802C422.457 345.721 411.153 338.705 402.918 333.185C397.461 329.255 386.696 320.626 378.892 313.922C371.997 307.668 358.746 293.923 349.286 283.21C342.821 275.647 330.829 259.161 322.515 246.407C318.199 239.315 310.212 224.259 304.664 212.768C301.078 204.748 294.635 187.904 290.233 175.144C287.584 166.659 283.224 148.978 280.463 135.593C280.434 135.487 280.404 135.257 280.384 135.104C278.962 126.462 277.136 108.554 276.335 95.0795C276.33 94.9789 276.319 94.7777 276.304 94.6005C276.081 85.0475 276.731 65.4338 277.78 50.7776C278.49 44.2201 280.293 30.8066 281.803 20.7961C282.963 13.978 285.833 0.20077 288.224 -9.98584C291.292 -23.5004 297.615 -44.6178 302.355 -57.133C303.981 -61.3704 306.911 -69.0869 308.916 -74.3703C309.238 -75.2533 309.584 -76.1315 309.769 -76.5683C309.869 -76.8226 309.864 -76.7986 309.76 -76.5203C309.613 -76.1508 309.196 -75.0375 308.831 -74.0633C308.679 -73.6698 308.532 -73.3003 308.47 -73.1132C308.447 -72.9933 309.861 -76.4009 311.65 -80.7061C313.935 -86.6567 321.857 -103.727 329.347 -118.841C333.907 -127.508 343.937 -144.913 351.72 -157.704C357.014 -166.178 368.341 -183.08 377.069 -195.487C381.809 -202.401 392.22 -216.022 400.288 -225.945C405.776 -232.737 417.453 -246.21 426.408 -256.084C441.24 -273.968 475.732 -305.78 503.443 -327.119C511.428 -336.236 529.964 -352.051 544.818 -362.413C552.604 -370.897 568.967 -374.716 581.322 -370.904C587.461 -368.932 597.042 -361.506 602.734 -354.318C611.968 -348.18 621.762 -333.443 624.641 -321.429C625.009 -312.744 617.81 -299.241 608.559 -291.293C586.89 -272.705 563.116 -256.595 540.055 -239.798"
			fill="#00303D" />
		<path
			d="M599.809 454.952C606.491 454.915 620.17 454.629 630.369 454.309C636.465 453.959 646.671 452.844 653.142 451.844C653.55 451.8 654.325 451.653 654.915 451.569C655.897 451.512 657.88 451.178 659.336 450.866C661.827 450.482 664.347 450.078 665.583 449.872C666.277 449.759 666.866 449.675 666.895 449.656C666.943 449.665 667.101 449.622 667.23 449.597C668.912 449.403 672.356 448.857 674.938 448.392C679.076 447.608 687.53 446.026 693.838 444.845C699.633 443.739 711.414 441.19 720.11 439.132C747.951 434.572 802.055 417.725 840.918 401.505C867.083 391.887 917.318 366.043 953.112 343.747C963.677 337.225 984.997 323.473 1000.74 313.012C1004.09 311.029 1008.03 312.172 1009.56 315.558C1017.33 332.512 1032.2 367.212 1042.79 393.056C1044.04 396.19 1042.5 399.722 1039.36 400.923C1035.91 402.241 1028.86 404.943 1023.6 406.977C924.346 454.87 711.681 521.424 548.599 555.66C539.212 559.723 519.724 561.436 505.062 559.489C492.914 555.892 477.371 538.338 470.295 520.275C462.888 501.997 445.691 465.524 431.843 438.792C430.737 432.352 433.962 428.602 439.084 430.426C446.805 433.48 463.056 438.253 475.373 441.111C516.134 450.579 557.868 455.334 599.766 454.918"
			fill="#00303D" />
		<path
			d="M656.367 605.174C683.361 598.954 737.621 583.855 777.546 571.503C840.012 550.74 966.445 504.854 1059.96 468.982C1061.73 467.686 1065.5 466.88 1068.4 467.198C1075.26 480.639 1083.39 498.808 1086.56 507.793C1090.45 518.61 1098.05 540.883 1103.53 557.539C1104.53 561.344 1102.33 564.822 1098.62 565.317C1074.18 568.301 1024.59 576.074 987.855 582.678C938.163 588.689 839.285 611.737 767.009 634.14C742.495 640.795 694.047 658.649 658.78 674.054C647.287 678.825 624.387 689.704 607.594 698.392C596.119 710.959 574.756 722.387 559.893 723.886C542.957 706.955 526.814 677.061 523.876 657.069C522.133 652.994 522.176 645.136 523.969 639.537C547.765 630.7 581.377 620.822 599.09 617.491C618.253 613.872 637.342 609.741 656.386 605.202"
			fill="#00303D" />
		<path
			d="M808.429 157.414C792.862 163.529 760.477 174.643 736.129 182.227C728.193 184.731 711.732 189.178 699.396 192.141C690.844 194.227 673.186 197.917 659.976 200.386C654.29 201.315 642.544 202.925 633.767 203.995C627.739 204.633 615.395 205.479 606.227 205.876C598.227 206.029 581.811 205.281 569.568 204.205C569.449 204.182 569.199 204.183 569.031 204.15C564.086 203.456 553.979 201.653 546.485 200.112C546.365 200.089 546.101 200.037 545.914 199.975C541.441 198.777 532.35 195.977 525.62 193.715C525.481 193.663 525.202 193.558 525.02 193.473C520.016 191.423 509.905 186.582 502.401 182.675C502.223 182.565 501.892 182.351 501.623 182.199C496.763 179.157 487.505 171.993 480.923 166.175C478.627 164.033 474.231 159.389 471.076 155.784C468.377 152.393 463.27 145.146 459.704 139.569C459.646 139.483 459.515 139.258 459.424 139.091C457.347 135.448 453.417 127.784 450.612 122.008C450.559 121.898 450.452 121.678 450.404 121.544C447.794 115.532 443.211 102.935 440.145 93.3981C440.116 93.2928 440.053 93.1062 440.009 92.9483C438.699 88.1863 436.375 78.2968 434.795 70.8432C434.766 70.7379 434.732 70.532 434.707 70.4027C434.167 67.4343 433.369 61.3286 432.947 56.7402C432.661 53.7468 432.318 47.6057 432.165 43.0449C432.164 42.9204 432.163 42.6713 432.148 42.494C432.25 38.282 432.827 29.7319 433.408 23.3235C433.432 23.2036 433.43 22.9544 433.468 22.7626C434.139 18.3135 435.836 9.26056 437.231 2.51343C437.254 2.39354 437.301 2.15379 437.334 1.98595C439.05 -4.74811 443.402 -18.335 447.035 -28.3782C447.059 -28.4981 447.173 -28.6997 447.23 -28.8629C449.19 -33.5329 453.526 -42.9656 456.928 -49.9174C456.971 -50.0086 457.09 -50.2343 457.171 -50.3927C460.671 -56.8275 468.655 -69.629 474.971 -78.998C475.014 -79.0892 475.143 -79.2383 475.243 -79.368C481.543 -88.0182 495.607 -104.908 506.632 -117.089C512.988 -123.862 526.516 -137.246 536.818 -147.005C543.636 -153.339 557.959 -165.821 568.801 -174.902C579.614 -184.213 602.7 -202.026 620.343 -214.68C639.853 -249.224 667.281 -262.752 681.58 -244.943C712.158 -231.418 722.05 -203.817 703.635 -183.273C699.724 -179.582 690.666 -173.637 683.444 -169.947C607.675 -150.443 531.109 -68.5621 512.418 12.9673C511.058 17.8791 509.526 28.2587 508.999 36.1714C504.567 56.9121 514.191 91.356 530.553 113.128C540.473 130.403 569.931 148.763 596.375 154.136C616.335 158.539 655.04 155.731 682.852 147.88C709.393 140.028 760.247 117.517 796.42 97.6092C812.807 91.7542 841.757 75.2877 861.051 60.8156C862.881 58.3358 867.535 56.06 871.417 55.6992C885.088 74.8038 900.479 98.1035 905.807 107.784C907.45 110.844 906.248 114.567 903.187 116.084C897.442 118.968 885.593 124.665 876.738 128.808C854.214 138.914 831.558 148.671 808.472 157.447"
			fill="#00303D" />
	</g>
</svg>
