<svg width="668" height="1347" viewBox="0 0 668 1347" fill="none" xmlns="http://www.w3.org/2000/svg">
    <g>
        <path
            d="M751.093 961.738C743.428 958.87 727.283 954.309 715.027 951.586C699.354 947.06 666.932 942.571 642.648 941.542C625.231 939.448 590.802 942.489 565.763 948.343C561.884 948.898 554.277 950.977 548.772 952.999C542.264 954.73 529.323 960.708 519.886 966.338C519.811 966.379 519.675 966.47 519.578 966.549C513.523 969.728 503 978.355 496.064 985.819C492.701 989.179 486.475 996.646 482.159 1002.51C481.003 1004.04 478.803 1007.29 477.247 1009.78C475.926 1011.86 473.437 1016.2 471.703 1019.47C466.931 1027.15 460.513 1044.2 457.355 1057.53C455.985 1064.16 454.453 1077.35 453.935 1087C453.929 1087.1 453.93 1087.3 453.935 1087.44C452.933 1099.24 457.846 1121.52 464.902 1137.22C466.611 1141.51 470.964 1149.85 474.63 1155.83C477.018 1159.76 482.413 1167.38 486.708 1172.86C500.029 1191.21 533.951 1219.28 562.478 1235.56C571.805 1241.22 591.704 1250.93 606.94 1257.27C621.352 1257.26 639.934 1265.14 648.444 1274.88C649.762 1279.11 648.53 1286.53 645.676 1291.47C640.213 1301.02 628.847 1320.45 620.306 1334.86C620.082 1335.63 619.173 1336.76 618.274 1337.38C610.267 1334.96 600.605 1331.5 596.645 1329.67C590.508 1326.85 578.026 1320.97 568.758 1316.53C556.485 1310.9 531.827 1298.51 513.693 1288.86C503.795 1283.75 484.041 1272.38 469.584 1263.46C465.959 1261.2 458.737 1256.3 453.46 1252.52C449.849 1249.91 442.551 1244.41 437.166 1240.24C434.599 1238.2 429.55 1233.79 425.895 1230.38C423.217 1227.88 417.885 1222.62 413.975 1218.61C413.945 1218.58 413.865 1218.48 413.809 1218.43C411.048 1215.35 405.635 1208.79 401.694 1203.78C401.657 1203.73 401.603 1203.65 401.542 1203.58C400.646 1202.28 398.801 1199.61 397.42 1197.62C396.367 1195.9 394.225 1192.36 392.659 1189.72C392.636 1189.68 392.576 1189.58 392.535 1189.5C390.946 1186.5 387.946 1180.16 385.84 1175.35C385.811 1175.29 385.766 1175.16 385.719 1175.06C384.567 1172.01 382.465 1165.61 381.024 1160.8C381.007 1160.74 380.975 1160.62 380.948 1160.52C380.421 1158.55 379.561 1154.47 379.041 1151.41C378.634 1149.09 377.959 1144.33 377.554 1140.77C377.55 1140.72 377.538 1140.59 377.524 1140.5C377.156 1135.88 376.928 1126.39 377.044 1119.29C377.287 1112.58 378.703 1098.92 380.212 1088.76C380.883 1083.37 383.302 1072.61 385.602 1064.72C386.047 1063.22 386.754 1060.85 387.188 1059.42C389.223 1052.87 394.306 1039.78 398.522 1030.19C401.481 1023.72 408.397 1010.85 413.962 1001.48C417.569 995.585 425.827 984.041 432.413 975.715C436.869 970.258 446.783 959.721 454.558 952.183C457.612 949.271 464.123 943.629 469.113 939.565C472.569 936.75 479.848 931.246 485.346 927.272C489.68 924.286 498.854 918.64 505.857 914.671C511.529 911.627 523.57 906.298 532.77 902.751C537.744 900.947 548.149 897.807 555.979 895.722C562.213 894.171 575.211 891.97 584.993 890.791C591.752 890.12 605.651 889.675 616.044 889.814C624.99 890.084 643.2 891.976 656.732 894.046C681.207 897.945 730.296 909.788 766.402 920.487C772.333 919.931 778.135 922.502 779.372 926.231C779.535 926.918 779.569 928.326 779.426 929.396C783.256 948.241 778.439 965.008 768.659 966.831C767.633 966.934 765.647 966.617 764.209 966.143C759.827 964.663 755.437 963.196 751.051 961.781"
            fill="#004D66" />
        <path
            d="M603.249 1207.74C595.347 1203.88 579.647 1195.08 568.186 1188.07C565.484 1186.41 560.121 1182.76 556.209 1179.91C553.53 1177.97 548.147 1173.88 544.197 1170.77C544.147 1170.74 544.06 1170.66 543.991 1170.6C539.92 1167.2 532.033 1159.7 526.373 1153.86C526.329 1153.81 526.237 1153.71 526.163 1153.63C523.878 1151.04 519.362 1145.54 516.076 1141.34C516.033 1141.3 515.966 1141.21 515.911 1141.12C514.724 1139.54 512.487 1136.17 510.905 1133.59C509.802 1131.8 507.687 1128.04 506.166 1125.22C506.137 1125.15 506.072 1125.03 506.025 1124.93C504.62 1121.94 502.028 1115.59 500.237 1110.8C500.197 1110.69 500.125 1110.46 500.09 1110.29C499.359 1107.45 498.156 1101.52 497.425 1097.03C497.403 1096.95 497.388 1096.77 497.375 1096.65C497.05 1093.63 496.805 1087.39 496.816 1082.7C496.814 1082.62 496.817 1082.47 496.837 1082.34C496.987 1080.18 497.43 1075.74 497.831 1072.43C497.835 1072.37 497.858 1072.21 497.884 1072.11C498.419 1068.98 499.904 1062.62 501.231 1057.91C501.243 1057.84 501.29 1057.69 501.336 1057.58C502.121 1055.34 503.886 1050.79 505.264 1047.44C505.301 1047.37 505.341 1047.24 505.392 1047.15C506.901 1043.93 510.35 1037.48 513.111 1032.76C513.148 1032.69 513.214 1032.58 513.265 1032.49C515.116 1029.58 519.29 1023.88 522.608 1019.74C522.645 1019.68 522.764 1019.56 522.848 1019.48C524.417 1017.76 527.769 1014.36 530.325 1011.87C530.374 1011.81 530.486 1011.71 530.575 1011.64C532.314 1010.15 535.994 1007.21 538.805 1005.07C538.867 1005.03 539.004 1004.94 539.093 1004.87C540.99 1003.61 545.003 1001.15 548.029 999.373C548.103 999.331 548.233 999.254 548.34 999.214C550.32 998.222 554.456 996.342 557.567 995.004C557.634 994.975 557.789 994.912 557.897 994.873C561.731 993.428 569.816 991.049 575.947 989.558C581.659 988.265 593.464 986.34 602.326 985.257C610.326 984.286 626.8 983.667 639.088 983.901C648.469 984.236 667.546 986.272 681.676 988.451C692.162 989.897 713.238 994.663 728.738 999.107C748.669 994.674 762.915 1004.37 760.526 1020.78C761.055 1033.04 755.032 1044.03 747.058 1045.34C745.291 1045.52 741.813 1045.09 739.266 1044.36C720.285 1032.15 677.251 1021.1 643.135 1019.66C638.698 1019.1 629.637 1019.12 622.89 1019.68C618.237 1019.87 608.824 1021.26 601.848 1022.81C589.478 1023.18 571.092 1033.46 560.797 1045.74C559.755 1046.9 557.927 1049.42 556.718 1051.4C554.025 1054.97 550.945 1063.16 549.853 1069.66C548.523 1075.39 549.612 1086.54 552.288 1094.56C554.647 1102.27 562.897 1115.37 570.715 1123.81C573.482 1127.24 579.914 1133.36 585.092 1137.48C588.643 1140.55 596.314 1146.28 602.24 1150.31C605.607 1152.61 612.675 1157.01 618.022 1160.17C625.257 1164.52 640.482 1172.58 652.015 1178.17C657.221 1180.72 667.959 1185.75 676.012 1189.38C688.873 1186.63 695.41 1193.74 690.625 1205.25C687.673 1211.19 681.971 1223.41 677.868 1232.55C677.625 1233.97 676.253 1236.14 674.796 1237.4C670.114 1237.08 662.895 1235.32 658.66 1233.47C654.158 1231.58 645.043 1227.55 638.29 1224.48C626.507 1219.12 614.772 1213.62 603.236 1207.74"
            fill="#004D66" />
        <path
            d="M485.922 722.59C493.318 721.491 504.784 719.743 511.52 718.702C516.407 717.899 526.391 716.955 533.817 716.568C538.98 715.991 549.547 715.418 557.398 715.293C562.686 714.941 573.451 714.787 581.443 714.946C586.334 715.076 596.346 715.318 603.779 715.476C642.816 718.399 722.438 728.255 781.611 737.484C789.572 735.084 798.414 738.732 801.368 745.621C801.775 746.737 802.029 749.085 801.943 750.848C806.501 769.724 802.002 785.472 791.895 786.04C790.404 786.009 787.499 785.348 785.389 784.57C760.856 775.37 735.371 768.465 716.685 765.519C712.705 764.898 709.461 764.381 709.449 764.373C709.423 764.359 709.358 764.355 709.305 764.358L709.214 764.339C709.214 764.339 707.924 764.137 706.44 763.89C703.171 763.358 698.371 762.602 695.733 762.18C679.028 759.531 644.743 756.743 619.143 755.938C610.607 755.753 593.181 755.906 580.201 756.255C574.686 756.797 563.507 757.373 555.239 757.546C555.173 757.542 555.04 757.566 554.935 757.573C544.114 758.203 522.286 761.286 506.17 764.483C497.355 766.102 479.504 770.397 466.299 774.071C464.548 774.551 461 775.619 458.351 776.478C455.54 776.973 453.458 775.296 453.696 772.741C454.978 759.015 455.965 745.152 456.337 738.168C456.535 734.302 456.936 730.908 457.219 730.563C457.742 729.951 458.47 729.101 459.001 728.475C459.297 728.138 461.495 727.442 463.92 726.911C468.309 725.973 477.05 724.159 485.914 722.603"
            fill="#004D66" />
        <path
            d="M478.179 815.079C531.792 795.808 640.072 793.277 720.04 809.431C733.348 813.388 760.748 820.585 781.263 825.501C785.15 825.374 790.303 828.366 792.769 832.196C793.726 833.679 794.726 836.967 795.019 839.542C799.347 856.879 794.953 875.262 785.225 880.605C780.705 880.655 773.16 879.399 768.378 877.789C762.865 875.86 751.484 872.237 742.958 869.686C707.166 851.749 632.473 842.486 576.131 849.018C557.545 849.332 522.805 859.308 498.531 871.295C490.225 873.733 475.939 882.508 466.626 890.92C462.618 899.887 449.31 909.346 436.912 912.064C434.317 913.682 431.6 912.723 430.86 909.925C432.83 900.729 435.975 886.741 437.878 878.659C439.168 869.087 442.648 849.703 445.656 835.364C448.833 820.174 465.393 818.674 478.159 815.085"
            fill="#004D66" />
        <path
            d="M637.861 132.189C629.5 134.256 612.994 140.124 600.99 145.271C593.294 148.62 578.01 156.277 566.83 162.374C559.122 166.156 544.865 175.762 535.001 183.805C531.447 186.614 524.586 192.833 519.685 197.711C516.628 200.892 510.7 207.667 506.439 212.847C503.918 215.745 499.382 222.104 496.325 227.047C493.551 231.323 488.7 240.43 485.516 247.383C481.35 255.48 476.657 272.708 475.041 285.868C466.075 311.437 474.601 354.32 494.073 381.62C495.373 383.742 498.397 387.809 500.82 390.716C502.56 392.838 506.334 397.016 509.248 400.07C512.385 403.237 519.275 409.18 524.62 413.366C529.591 416.44 539.395 422.676 546.522 427.299C546.636 427.365 546.852 427.49 547.025 427.572C557.093 433.148 578.855 440.512 595.653 444.028C604.011 445.99 621.351 448.803 634.37 450.323C643.02 451.251 660.726 452.344 673.923 452.764C681.632 453.149 697.391 453.151 709.104 452.766C725.139 452.673 757.717 450.139 781.885 447.085C783.801 446.819 785.586 448.189 785.878 450.119C786.518 454.266 787.727 462.739 788.579 469.041C789.179 473.402 790.31 482.304 791.112 488.899C791.385 490.598 790.202 492.355 788.458 492.821C781.365 494.774 766.808 498.531 755.944 501.203C743.279 504.529 716.91 509.106 697.034 511.419C691.369 512.163 679.722 512.875 671.028 513.021C664.831 513.187 652.173 513.096 642.729 512.81C628.077 512.65 602.281 510.072 585.111 507.053C583.621 506.785 580.556 506.252 578.292 505.86C577.493 505.687 575.855 505.384 574.63 505.186C574.565 505.182 574.441 505.161 574.358 505.13C570.742 504.347 563.41 502.4 557.978 500.772C549.634 498.258 533 491.873 520.829 486.506C513.983 483.451 500.51 476.113 490.745 470.102C486.897 467.61 479.284 462.097 473.743 457.78C470.56 455.162 464.396 449.401 459.937 444.913C459.893 444.871 459.801 444.767 459.739 444.697C457.103 441.837 452.049 435.65 448.447 430.911C446.113 427.615 441.679 420.618 438.553 415.289C435.854 410.394 431.006 400.006 427.719 392.078C425.52 386.523 421.92 374.823 419.683 365.96C418.613 361.09 417.009 350.983 416.096 343.376C415.622 338.122 415.244 327.299 415.229 319.194C415.377 313.859 416.344 302.967 417.384 294.826C417.388 294.761 417.415 294.624 417.434 294.533C418.31 289.347 420.761 278.82 422.931 271.011C422.948 270.953 422.981 270.836 423.007 270.733C424.741 265.263 428.931 254.249 432.382 246.129C434.062 242.543 437.699 235.275 440.507 229.884C442.494 226.237 446.808 218.971 450.15 213.651C454.525 206.572 462.23 195.809 467.361 189.624C469.11 187.534 472.277 183.722 474.445 181.111C474.8 180.673 475.167 180.241 475.358 180.029C475.464 179.904 475.456 179.917 475.343 180.055C475.187 180.236 474.734 180.787 474.337 181.269C474.174 181.463 474.018 181.644 473.947 181.739C473.91 181.802 475.377 180.142 477.232 178.045C479.689 175.11 487.514 166.958 494.712 159.832C498.99 155.798 508.078 147.866 514.99 142.117C519.648 138.335 529.374 130.941 536.748 125.594C540.787 122.59 549.354 116.882 555.869 112.817C560.31 110.028 569.567 104.65 576.577 100.787C588.484 93.5177 614.272 82.1678 634.169 75.4454C640.48 71.8225 654.089 66.4502 664.545 63.458C670.62 60.1561 680.658 61.1747 686.933 65.7461C690.036 68.0626 694.031 74.1466 695.864 79.3379C699.913 84.6232 702.605 94.9012 701.9 102.286C700.417 107.291 693.698 113.558 686.895 116.271C670.967 122.607 654.325 127.127 637.954 132.175"
            fill="#004D66" />
        <path
            d="M536.559 538.427C540.362 539.707 548.187 542.21 554.043 544.015C557.573 545.003 563.587 546.358 567.458 547.051C567.698 547.105 568.167 547.173 568.518 547.24C569.087 547.399 570.278 547.596 571.166 547.702C572.656 547.969 574.166 548.231 574.908 548.354C575.324 548.425 575.675 548.492 575.695 548.487C575.721 548.502 575.819 548.508 575.897 548.519C576.89 548.736 578.953 549.097 580.51 549.336C583.013 549.697 588.123 550.445 591.936 551.003C595.443 551.503 602.631 552.35 607.971 552.876C624.672 555.709 658.685 556.679 683.918 555.037C700.653 554.671 734.221 549.777 758.895 544.085C766.166 542.439 780.955 538.781 791.936 535.906C794.226 535.433 796.238 536.849 796.447 539.07C797.556 550.212 799.247 572.82 800.225 589.561C800.327 591.586 798.765 593.292 796.743 593.361C794.529 593.438 789.996 593.599 786.615 593.731C720.91 601.599 587.153 597.975 487.855 585.653C481.732 586.132 470.329 583.309 462.381 579.347C456.181 574.938 450.772 561.939 450.272 550.301C449.625 538.477 446.962 514.41 444.304 496.529C444.93 492.656 447.492 491.154 450.047 493.188C453.837 496.426 462.138 502.303 468.577 506.326C489.885 519.644 512.663 530.474 536.541 538.399"
            fill="#004D66" />
        <path
            d="M539.422 634.769C555.966 636.495 589.726 638.488 614.809 639.249C654.334 639.625 735.086 638.19 795.19 636.032C796.449 635.641 798.747 635.917 800.333 636.664C801.611 645.634 802.687 657.537 802.739 663.258C802.839 670.159 802.815 684.29 802.685 694.819C802.511 697.174 800.584 698.721 798.382 698.28C783.917 695.213 754.237 689.969 732.086 686.564C702.69 680.298 642.039 674.129 596.623 672.774C581.403 671.779 550.407 672.482 527.375 674.362C519.917 674.833 504.791 676.552 493.56 678.215C484.595 683.118 470.234 685.448 461.5 683.404C455.179 670.488 451.833 650.364 454.059 638.436C453.863 635.782 455.418 631.327 457.527 628.497C472.764 628.113 493.78 629.049 504.489 630.608C516.079 632.285 527.726 633.657 539.427 634.789"
            fill="#004D66" />
        <path
            d="M713.013 410.066C702.98 410.507 682.42 410.511 667.114 410.076C662.118 409.952 651.902 409.271 644.319 408.552C639.055 408.071 628.307 406.727 620.322 405.556C616.912 404.976 609.926 403.602 604.732 402.5C601.185 401.689 594.008 399.764 588.724 398.204C584.15 396.732 574.972 393.11 568.228 390.114C568.164 390.077 568.022 390.029 567.933 389.978C565.26 388.621 559.87 385.628 555.914 383.293C555.85 383.256 555.71 383.175 555.616 383.104C553.309 381.552 548.691 378.191 545.309 375.595C545.24 375.538 545.102 375.424 545.015 375.34C542.572 373.201 537.772 368.482 534.271 364.801C534.192 364.704 534.045 364.518 533.922 364.379C531.754 361.705 527.891 355.832 525.286 351.245C524.399 349.581 522.807 346.087 521.717 343.425C520.844 340.974 519.355 335.862 518.416 332C518.4 331.94 518.37 331.787 518.35 331.674C517.88 329.2 517.141 324.082 516.673 320.254C516.664 320.181 516.647 320.036 516.645 319.95C516.334 316.027 516.185 307.979 516.301 301.965C516.305 301.9 516.305 301.782 516.311 301.683C516.495 298.723 517.101 292.654 517.656 288.112C517.66 288.047 517.68 287.923 517.692 287.845C517.963 286.054 518.699 282.43 519.353 279.742C519.774 277.986 520.776 274.431 521.577 271.811C521.601 271.74 521.649 271.598 521.674 271.494C522.553 269.122 524.546 264.378 526.125 260.851C526.161 260.788 526.209 260.646 526.268 260.544C527.516 258.148 530.243 253.336 532.349 249.776C532.386 249.712 532.46 249.585 532.511 249.496C534.797 246.006 539.916 239.136 543.936 234.14C543.973 234.076 544.077 233.984 544.141 233.902C546.164 231.631 550.464 227.118 553.751 223.833C553.793 223.789 553.904 223.684 553.981 223.61C557.223 220.637 564.251 214.921 569.664 210.83C569.706 210.786 569.808 210.727 569.89 210.672C575.154 206.986 586.432 200.133 595.067 195.362C599.997 192.753 610.287 187.786 618.04 184.25C623.146 181.981 633.713 177.681 641.64 174.635C649.595 171.453 666.178 165.832 678.664 162.081C696.475 146.261 714.689 143.92 719.341 156.821C734.075 170.46 734.317 188.064 719.855 196.145C716.915 197.48 710.612 199.092 705.791 199.781C658.956 196.1 599.517 227.693 573.019 270.36C571.29 272.885 568.397 278.482 566.557 282.873C559.999 293.791 558.756 315.229 563.809 330.783C566.078 342.528 579.233 358.694 593.207 366.897C603.686 373.286 626.217 379.231 643.543 380.189C660.148 380.899 693.418 378.019 717.842 373.758C728.29 373.625 747.941 369.911 761.719 365.45C763.241 364.398 766.328 364.012 768.603 364.563C772.647 378.077 776.85 394.309 777.991 400.846C778.328 402.904 776.92 404.784 774.886 405.049C771.061 405.568 763.221 406.496 757.385 407.124C742.622 408.477 727.854 409.605 713.031 410.093"
            fill="#004D66" />
    </g>
</svg>
