<svg width="713" height="1670" viewBox="0 0 713 1670" fill="none" xmlns="http://www.w3.org/2000/svg">
	<g>
		<path
			d="M-453.867 987.891C-440.242 987.515 -412.346 989.053 -391.567 991.385C-364.432 992.722 -310.933 1003.17 -272.121 1014.67C-243.555 1020.78 -190.96 1044.17 -154.679 1066.92C-148.868 1069.89 -138.009 1077.27 -130.428 1083.43C-121.112 1089.67 -103.954 1106.08 -92.131 1120.05C-92.0356 1120.16 -91.8688 1120.37 -91.7593 1120.55C-83.9382 1128.83 -72.0225 1148.1 -65.1286 1163.61C-61.6454 1170.72 -55.8716 1185.84 -52.2396 1197.41C-51.246 1200.45 -49.5378 1206.76 -48.4317 1211.52C-47.4757 1215.52 -45.9001 1223.7 -44.9339 1229.78C-41.5645 1244.46 -40.6635 1274.78 -42.8937 1297.49C-44.3172 1308.67 -49.0305 1330.28 -53.4251 1345.76C-53.469 1345.91 -53.5806 1346.23 -53.663 1346.45C-58.4616 1365.59 -78.2392 1398.03 -97.8333 1418.94C-102.843 1424.78 -114.207 1435.57 -123.212 1443C-129.1 1447.91 -141.717 1457 -151.442 1463.31C-182.337 1485.02 -250.942 1510.91 -304.678 1521.15C-322.425 1525.02 -359.019 1529.57 -386.445 1531.32C-409.142 1523.52 -442.673 1525.89 -461.342 1536.64C-465.706 1542.6 -467.772 1554.95 -465.947 1564.28C-462.501 1582.27 -455.089 1619.01 -449.42 1646.33C-449.483 1647.66 -448.663 1649.94 -447.582 1651.4C-433.659 1651.91 -416.569 1651.68 -409.342 1650.94C-398.154 1649.82 -375.312 1647.29 -358.315 1645.31C-335.939 1643.07 -290.404 1636.88 -256.62 1631.46C-238.269 1628.77 -201.007 1621.53 -173.413 1615.28C-166.479 1613.68 -152.456 1609.86 -142.104 1606.77C-135.005 1604.61 -120.537 1599.88 -109.798 1596.21C-104.652 1594.38 -94.3183 1590.17 -86.7157 1586.77C-81.1494 1584.28 -69.9048 1578.87 -61.5846 1574.68C-61.5173 1574.64 -61.3394 1574.53 -61.2242 1574.49C-55.2084 1571.12 -43.1354 1563.7 -34.2237 1557.95C-34.1371 1557.89 -34.0072 1557.79 -33.8727 1557.71C-31.7617 1556.15 -27.4099 1552.93 -24.1641 1550.56C-21.5712 1548.41 -16.2843 1543.99 -12.3971 1540.69C-12.3345 1540.62 -12.1853 1540.5 -12.0795 1540.4C-7.95491 1536.53 0.196193 1528.17 6.11009 1521.73C6.19198 1521.64 6.33177 1521.46 6.45693 1521.34C9.92135 1517.15 16.6896 1508.21 21.5601 1501.41C21.618 1501.32 21.7338 1501.15 21.8302 1501.01C23.7213 1498.2 27.2845 1492.22 29.7581 1487.68C31.6519 1484.25 35.287 1477.11 37.8458 1471.73C37.8797 1471.65 37.9668 1471.46 38.0393 1471.32C41.1134 1464.25 46.6031 1449.41 50.2558 1438.16C53.494 1427.47 58.6464 1405.18 61.7574 1388.37C63.6119 1379.52 65.617 1361.25 66.2555 1347.58C66.3673 1344.97 66.5335 1340.86 66.6208 1338.37C66.9524 1326.96 66.0169 1303.59 64.5574 1286.2C63.395 1274.41 59.4471 1250.41 55.7458 1232.64C53.2485 1221.4 46.4763 1198.75 40.5989 1182.08C36.5283 1171.08 26.6038 1149.12 18.4277 1133.05C15.19 1126.81 7.98095 1114.4 2.3156 1105.3C-1.60728 1099 -10.1001 1086.4 -16.6134 1077.17C-21.8273 1070.12 -33.2293 1056.27 -42.1167 1046.24C-49.4075 1038.38 -65.4978 1023.48 -78.0739 1012.92C-84.9337 1007.39 -99.6285 996.824 -110.837 989.308C-119.819 983.498 -139.106 973.008 -153.878 965.866C-164.164 961.157 -185.82 952.947 -202.267 947.552C-216.504 943.143 -246.213 936.285 -268.649 932.235C-309.31 925.155 -393.038 917.29 -455.696 914.638C-464.739 910.557 -475.269 911.473 -479.232 916.679C-479.859 917.673 -480.674 919.874 -481.026 921.635C-497.241 949.253 -498.712 978.269 -484.29 986.425C-482.73 987.14 -479.43 987.715 -476.909 987.744C-469.206 987.78 -461.498 987.841 -453.824 987.982"
			fill="#00303D" />
		<path
			d="M93.0611 754.422C82.003 748.695 64.8854 739.746 54.8369 734.468C47.5723 730.562 32.3536 723.682 20.8642 719.059C13.0427 715.362 -3.29397 708.75 -15.5942 704.311C-23.7334 700.9 -40.6093 694.841 -53.285 690.774C-61.0592 688.337 -76.9617 683.309 -88.7567 679.542C-151.831 663.056 -282.585 635.565 -380.786 618.135C-392.031 610.054 -407.93 611.024 -416.305 620.28C-417.549 621.818 -419.218 625.38 -420.035 628.204C-437.413 655.477 -438.833 682.715 -423.219 689.07C-420.855 689.827 -415.92 690.355 -412.176 690.27C-368.559 689.03 -324.682 691.921 -293.654 697.376C-287.048 698.548 -281.66 699.485 -281.636 699.481C-281.588 699.471 -281.482 699.5 -281.401 699.534L-281.248 699.554C-281.248 699.554 -279.107 699.932 -276.635 700.344C-271.198 701.272 -263.228 702.675 -258.845 703.436C-231.097 708.288 -175.582 722.419 -134.819 734.981C-121.272 739.301 -93.9045 748.957 -73.646 756.519C-65.2498 760.353 -47.9511 767.3 -35.0194 772.039C-34.914 772.068 -34.718 772.179 -34.5553 772.246C-17.8505 779.085 14.8705 795.735 38.5299 809.477C51.5417 816.789 77.342 833.2 96.1587 846.122C98.6584 847.824 103.671 851.423 107.379 854.208C111.54 856.506 115.726 854.99 116.731 850.835C122.128 828.52 128.062 806.149 131.25 794.946C133.026 788.748 134.229 783.185 133.968 782.49C133.475 781.242 132.788 779.509 132.29 778.238C132.005 777.547 128.918 775.263 125.385 773.116C118.978 769.266 106.188 761.687 93.0658 754.446"
			fill="#00303D" />
		<path
			d="M55.2901 904.304C-18.7553 844.981 -187.962 782.495 -322.664 764.739C-345.764 763.782 -392.817 760.317 -427.79 756.978C-433.844 754.677 -443.578 756.607 -449.533 761.307C-451.841 763.128 -455.193 767.766 -457.045 771.664C-473.229 796.637 -476.239 827.97 -463.801 841.642C-456.708 844.163 -444.144 846.26 -435.741 846.309C-426.015 846.248 -406.129 846.689 -391.319 847.276C-325.246 838.357 -202.576 864.119 -117.349 904.849C-88.2406 915.384 -38.9049 949.868 -7.14107 981.865C4.62488 990.193 22.3885 1011.74 32.5157 1030.02C33.9847 1046.31 49.8382 1068.4 67.901 1079.38C71.1149 1083.33 75.9134 1083.29 78.5909 1079.28C80.455 1063.73 83.0586 1039.99 84.4261 1026.23C87.5661 1010.46 92.5557 978.042 95.5641 953.829C98.7655 928.185 73.4899 916.874 55.3187 904.323"
			fill="#00303D" />
		<path
			d="M172.68 -257.725C184.736 -249.952 207.566 -231.791 223.696 -217.198C234.01 -207.764 253.95 -187.444 268.268 -171.799C278.368 -161.677 295.637 -138.843 306.83 -120.844C310.911 -114.498 318.359 -100.994 323.444 -90.6622C326.541 -83.9991 332.22 -70.1241 336.134 -59.663C338.539 -53.7358 342.249 -41.2679 344.394 -31.8298C346.454 -23.5946 349.176 -6.62692 350.435 6.04656C352.624 21.0524 350.709 50.727 346.144 72.3316C346.455 117.453 309.856 180.401 264.433 212.887C261.239 215.528 254.278 220.301 248.89 223.57C245.002 225.974 236.8 230.516 230.559 233.754C223.906 237.047 209.842 242.686 199.161 246.394C189.67 248.55 170.855 253.077 157.131 256.509C156.916 256.552 156.508 256.631 156.191 256.668C137.319 260.012 99.0585 259.856 70.6963 256.319C56.4705 254.895 27.6349 249.957 6.30453 245.318C-7.82251 242.107 -36.3054 234.263 -57.3211 227.795C-69.6731 224.237 -94.5005 215.726 -112.744 208.791C-137.953 199.982 -187.905 178.389 -224.326 160.521C-227.201 159.067 -230.753 160.26 -232.256 163.143C-235.504 169.33 -241.986 182.025 -246.734 191.492C-250.036 198.038 -256.627 211.451 -261.453 221.406C-262.801 223.936 -261.886 227.341 -259.391 229.019C-249.272 235.926 -228.369 249.71 -212.7 259.788C-194.546 271.869 -155.479 293.327 -125.419 307.709C-116.895 311.941 -98.9317 319.355 -85.3153 324.283C-75.6431 327.892 -55.6542 334.586 -40.6225 339.238C-17.4549 346.903 24.5753 356.777 53.2546 361.298C55.7455 361.682 60.8615 362.498 64.6409 363.103C65.992 363.261 68.7369 363.67 70.7727 364.019C70.878 364.048 71.084 364.082 71.2326 364.078C77.3508 364.798 89.9538 365.693 99.3906 366.062C113.893 366.61 143.546 365.538 165.618 363.659C178.052 362.546 203.241 358.265 221.872 354.072C229.281 352.224 244.252 347.652 255.312 343.845C261.741 341.442 274.564 335.697 284.013 331.035C284.104 330.993 284.306 330.878 284.44 330.802C290.138 327.721 301.443 320.705 309.678 315.185C315.135 311.255 325.9 302.626 333.703 295.922C340.599 289.668 353.85 275.923 363.31 265.21C369.775 257.647 381.767 241.161 390.081 228.407C394.396 221.315 402.384 206.259 407.931 194.768C411.518 186.748 417.96 169.904 422.363 157.144C425.011 148.659 429.372 130.978 432.133 117.593C432.162 117.487 432.192 117.257 432.212 117.104C433.634 108.462 435.46 90.5543 436.261 77.0795C436.266 76.9789 436.276 76.7777 436.292 76.6005C436.515 67.0475 435.865 47.4338 434.816 32.7776C434.105 26.2201 432.303 12.8066 430.793 2.79605C429.633 -4.02197 426.763 -17.7992 424.372 -27.9858C421.304 -41.5004 414.981 -62.6178 410.241 -75.133C408.615 -79.3704 405.685 -87.0869 403.68 -92.3703C403.358 -93.2533 403.012 -94.1315 402.827 -94.5683C402.727 -94.8226 402.732 -94.7986 402.836 -94.5203C402.983 -94.1508 403.4 -93.0375 403.765 -92.0633C403.917 -91.6698 404.064 -91.3003 404.125 -91.1132C404.149 -90.9933 402.735 -94.4009 400.946 -98.7061C398.661 -104.657 390.739 -121.727 383.249 -136.841C378.689 -145.508 368.659 -162.913 360.876 -175.704C355.582 -184.178 344.255 -201.08 335.526 -213.487C330.787 -220.401 320.376 -234.022 312.308 -243.945C306.819 -250.737 295.143 -264.21 286.187 -274.084C271.356 -291.968 236.864 -323.78 209.153 -345.119C201.168 -354.236 182.632 -370.051 167.778 -380.413C159.991 -388.897 143.628 -392.716 131.274 -388.904C125.134 -386.932 115.554 -379.506 109.862 -372.318C100.628 -366.18 90.8339 -351.443 87.9544 -339.429C87.5865 -330.744 94.7861 -317.241 104.037 -309.293C125.706 -290.705 149.48 -274.595 172.541 -257.798"
			fill="#00303D" />
		<path
			d="M112.787 436.952C106.105 436.915 92.4254 436.629 82.2263 436.309C76.1305 435.959 65.9251 434.844 59.4534 433.844C59.0461 433.8 58.2702 433.653 57.681 433.569C56.6986 433.512 54.7155 433.178 53.2596 432.866C50.7686 432.482 48.249 432.078 47.0131 431.872C46.3186 431.759 45.7293 431.675 45.7006 431.656C45.6527 431.665 45.4947 431.622 45.3653 431.597C43.6837 431.403 40.2395 430.857 37.6578 430.392C33.5196 429.608 25.0658 428.026 18.7579 426.845C12.9625 425.739 1.18144 423.19 -7.51473 421.132C-35.3549 416.572 -89.4588 399.725 -128.322 383.505C-154.487 373.887 -204.722 348.043 -240.516 325.747C-251.082 319.225 -272.402 305.473 -288.147 295.012C-291.499 293.029 -295.434 294.172 -296.963 297.558C-304.729 314.512 -319.608 349.212 -330.192 375.056C-331.447 378.19 -329.909 381.722 -326.76 382.923C-323.314 384.241 -316.26 386.943 -311.006 388.977C-211.751 436.87 0.915111 503.424 163.996 537.66C173.384 541.723 192.872 543.436 207.534 541.489C219.681 537.892 235.225 520.338 242.301 502.275C249.708 483.997 266.905 447.524 280.752 420.792C281.858 414.352 278.634 410.602 273.512 412.426C265.791 415.48 249.539 420.253 237.222 423.111C196.461 432.579 154.728 437.334 112.83 436.918"
			fill="#00303D" />
		<path
			d="M56.2288 587.174C29.2346 580.954 -25.0254 565.855 -64.9502 553.503C-127.416 532.74 -253.85 486.854 -347.366 450.982C-349.139 449.686 -352.908 448.88 -355.809 449.198C-362.668 462.639 -370.794 480.808 -373.968 489.793C-377.853 500.61 -385.45 522.883 -390.933 539.539C-391.932 543.344 -389.733 546.822 -386.025 547.317C-361.581 550.301 -311.992 558.074 -275.259 564.678C-225.567 570.689 -126.69 593.737 -54.4135 616.14C-29.8993 622.795 18.5487 640.649 53.8156 656.054C65.3092 660.825 88.2091 671.704 105.002 680.392C116.476 692.959 137.84 704.387 152.703 705.886C169.639 688.955 185.782 659.061 188.719 639.069C190.462 634.994 190.419 627.136 188.626 621.537C164.831 612.7 131.218 602.822 113.506 599.491C94.3429 595.872 75.2538 591.741 56.2095 587.202"
			fill="#00303D" />
		<path
			d="M-95.8332 139.414C-80.2661 145.529 -47.881 156.643 -23.5337 164.227C-15.5969 166.731 0.864108 171.178 13.1995 174.141C21.7517 176.227 39.4095 179.917 52.6193 182.386C58.3052 183.315 70.052 184.925 78.8291 185.995C84.8565 186.633 97.2009 187.479 106.369 187.876C114.369 188.029 130.785 187.281 143.027 186.205C143.147 186.182 143.396 186.183 143.564 186.15C148.509 185.456 158.617 183.653 166.111 182.112C166.231 182.089 166.495 182.037 166.682 181.975C171.155 180.777 180.245 177.977 186.976 175.715C187.115 175.663 187.393 175.558 187.576 175.473C192.579 173.423 202.69 168.582 210.194 164.675C210.372 164.565 210.704 164.351 210.973 164.199C215.832 161.157 225.09 153.993 231.673 148.175C233.968 146.033 238.365 141.389 241.52 137.784C244.219 134.393 249.326 127.146 252.892 121.569C252.95 121.483 253.08 121.258 253.172 121.091C255.249 117.448 259.179 109.784 261.984 104.008C262.037 103.898 262.143 103.678 262.192 103.544C264.801 97.5316 269.385 84.9347 272.45 75.3981C272.48 75.2928 272.543 75.1062 272.587 74.9483C273.896 70.1863 276.22 60.2968 277.8 52.8432C277.83 52.7379 277.864 52.532 277.889 52.4027C278.429 49.4343 279.226 43.3286 279.649 38.7402C279.935 35.7468 280.277 29.6057 280.431 25.0449C280.432 24.9204 280.433 24.6713 280.448 24.494C280.346 20.282 279.769 11.7319 279.188 5.32348C279.164 5.20362 279.165 4.95443 279.128 4.76263C278.456 0.31352 276.76 -8.73944 275.365 -15.4866C275.342 -15.6065 275.295 -15.8462 275.262 -16.014C273.546 -22.7481 269.194 -36.335 265.56 -46.3782C265.537 -46.4981 265.423 -46.6997 265.366 -46.8629C263.406 -51.5329 259.07 -60.9656 255.668 -67.9174C255.625 -68.0086 255.506 -68.2343 255.425 -68.3927C251.925 -74.8275 243.941 -87.629 237.625 -96.998C237.582 -97.0892 237.453 -97.2383 237.353 -97.368C231.053 -106.018 216.989 -122.908 205.964 -135.089C199.608 -141.862 186.08 -155.246 175.777 -165.005C168.959 -171.339 154.637 -183.821 143.795 -192.902C132.982 -202.213 109.896 -220.026 92.2528 -232.68C72.7424 -267.224 45.3144 -280.752 31.016 -262.943C0.438072 -249.418 -9.45383 -221.817 8.96118 -201.273C12.8713 -197.582 21.9295 -191.637 29.1519 -187.947C104.921 -168.443 181.487 -86.5621 200.178 -5.03275C201.537 -0.120851 203.07 10.2587 203.597 18.1714C208.029 38.9121 198.405 73.356 182.042 95.1281C172.123 112.403 142.665 130.763 116.22 136.136C96.2607 140.539 57.5558 137.731 29.744 129.88C3.20255 122.028 -47.6512 99.5166 -83.8239 79.6092C-100.212 73.7542 -129.161 57.2877 -148.455 42.8156C-150.285 40.3358 -154.94 38.06 -158.821 37.6992C-172.492 56.8038 -187.883 80.1035 -193.212 89.7842C-194.854 92.8439 -193.653 96.5669 -190.591 98.0839C-184.847 100.968 -172.998 106.665 -164.143 110.808C-141.618 120.914 -118.963 130.671 -95.8765 139.447"
			fill="#00303D" />
	</g>
</svg>
