<svg xmlns="http://www.w3.org/2000/svg" width="226" height="240" viewBox="0 0 226 240" fill="none">
	<mask id="mask0_2_3" width="226" height="240" x="0" y="0" maskUnits="userSpaceOnUse" style="mask-type:luminance">
		<path fill="#fff" d="M225.979 0H.825v240h225.154V0Z" />
	</mask>
	<g mask="url(#mask0_2_3)">
		<path fill="#21BCBA"
			d="M62.31 48.839c1.242 2.02 4.321.238 3.24-1.824-2.322-3.852-4.661-7.764-6.618-11.82-1.463-3.536-2.127-7.414-1.302-11.215.902-3.792 3.999-7.9 8.338-6.92 5.521 2.259 8.873 11.965 11.562 17.155 1.038 1.807 1.42 4.943 3.99 5.053 1.582-.426 1.31-2.735.638-3.86-3.53-6.928-6.517-16.66-13.238-21.066-9.75-4.883-16.811 6.766-15.195 15.561.732 7.065 5.207 12.92 8.593 18.936" />
	</g>
	<mask id="mask1_2_3" width="226" height="240" x="0" y="0" maskUnits="userSpaceOnUse" style="mask-type:luminance">
		<path fill="#fff" d="M225.979 0H.825v240h225.154V0Z" />
	</mask>
	<g fill="#21BCBA" mask="url(#mask1_2_3)">
		<path d="M68.299 29.929c2.17 3.05 3.896 6.348 5.59 9.715.408 1.363 2.798 3.306 3.709 1.406.782-2.105-1.038-4.014-1.795-5.872-1.685-2.94-3.182-6.11-5.53-8.581-3.123-3.418-8.772-2.173-9.393 2.624-.204 4.32 2.153 8.258 4.05 11.99.706 1.33 1.455 2.634 2.16 3.963.205.477.622.878 1.166 1.048 2.144.503 3.046-1.823 1.796-3.383-1.421-2.616-2.885-5.207-4.11-7.925-.672-1.602-1.438-3.494-1.37-5.318.502-2.224 2.868-.963 3.727.333ZM101.249 30.994c-.179.741.162 1.619.834 2.02 4.475 1.84 2.518-6.537 2.722-8.855-.162-3.894.111-8.13.97-12.015.655-4.39 3.956-8.897 8.814-8.403 4.313 1.824 4.807 8.138 5.156 12.237.11 4.645-.681 9.247-1.268 13.84-.451 2.139 1.514 4.636 3.148 2.096 1.123-2.778.953-5.982 1.463-8.93.749-6.673.681-14.138-3.309-19.848-4.22-6.102-13.562-2.403-16.063 3.494-2.884 6.536-2.816 13.916-2.476 20.93.034 1.142.094 2.3 0 3.442" />
	</g>
	<mask id="mask2_2_3" width="226" height="240" x="0" y="0" maskUnits="userSpaceOnUse" style="mask-type:luminance">
		<path fill="#fff" d="M225.979 0H.825v240h225.154V0Z" />
	</mask>
	<g fill="#21BCBA" mask="url(#mask2_2_3)">
		<path d="M114.87 33.235c3.216.41 2.28-5.514 2.612-7.542.119-2.36.28-4.72.391-7.081.144-2.224.162-4.61-1.089-6.554-2.382-3.698-7.257-2.224-8.593 1.585-1.174 2.761-1.336 5.82-1.574 8.778-.059 3-.672 6.153.043 9.084.927 1.884 3.973.81 3.462-1.287-.11-1.678-.025-3.366.051-5.044.171-2.779.239-5.216.817-8.054.196-1.483 1.838-5.445 3.012-2.318.587 4.142-.315 8.403-.315 12.579.043 1.943-.868 4.652 1.191 5.846M37.45 83.36c2.527 1.108 3.888-2.888 1.208-3.528-5.224-2.829-10.864-5.292-14.905-9.791-5.045-4.806-7.07-19.447 2.824-19.208 5.547.869 10.49 3.74 15.23 6.68 2.151 1.45 4.227 3.018 6.26 4.611 1.234.989 3.965.989 3.361-1.21-.178-.98-.944-1.679-1.718-2.233-6.407-4.976-13.51-9.578-21.516-11.376-12.88-2.13-14.982 13.72-9.512 22.173 4.271 6.852 11.775 10.27 18.76 13.882" />
		<path d="M32.107 60.352c3.046 1.602 5.854 3.613 8.67 5.573 1.386.835 2.569 2.377 4.313 2.343.876.051 1.693-.537 1.523-1.483-.17-1.849-2.068-2.641-3.36-3.664-3.089-2.139-6.11-4.363-9.461-6.085-6.151-3.383-12.464 1.875-8.635 8.352 3.122 5.692 9.341 8.7 14.463 12.288 1.786.554 3.181-1.909 1.77-3.153-3.174-2.437-6.722-4.38-9.776-6.988-1.608-1.61-4.934-4.823-3.497-7.218 1.14-.962 2.782-.639 3.99.026M29.334 44.007c7.657 1.414 13.978 6.331 19.857 11.206 1.37 1.065 2.484 2.556 4.04 3.34 1.507.571 3.004-1.295 2.187-2.667-2.875-2.889-6.125-5.505-9.435-7.917-4.849-3.485-10.251-6.92-16.317-7.55-2.867.332-2.901 2.659-.332 3.596M60.838 51.583c.034-.631-.307-1.185-.749-1.602-.927-1.117-1.787-2.293-2.654-3.452-4.11-5.224-7.155-11.462-7.351-18.203-.162-1.67.536-3.45-.213-5.019-.46-1.04-1.48-1.457-2.348-.588-1.267 1.091-1.046 2.906-1.157 4.423-.323 9.732 5.037 18.313 11.086 25.489 1.004 1.363 3.335.69 3.377-1.04M33.477 36.96c3.744 1.235 7.01 3.587 10.056 6.067 1.395.92 3.259-.375 3.003-2.003-.4-2.139-1.148-4.201-1.505-6.349-.34-1.738-.766-3.468-.962-5.232-.05-1.082-.476-2.454-1.59-2.863-.954-.256-1.762.911-2 1.67-.408 2.923.8 5.88 1.25 8.76-2.288-1.44-4.67-2.982-7.393-3.604-2.007-.06-2.671 2.7-.85 3.553M81.196 27.33c1.132 2.25 2.272 4.635 3.174 7.124.23.724.655 1.363 1.395 1.858 1.889 1.295 2.8-1.688 2.101-3.085-2.51-6.443-5.683-12.732-9.758-18.34-1.6-2.02-4.866-6.246-7.385-6.723-1.624-.034-2.467 2.181-1.233 3.221 5.402 3.971 8.703 10.082 11.698 15.953M95.243 33.389c1.352 1.218 3.564-.324 2.943-2.02-.383-2.855-.544-5.727-.706-8.599-.621-6.084.493-11.18 2.952-16.737.996-1.533.996-5.317-1.684-3.894-.86.46-1.362 1.346-1.66 2.25a174.405 174.405 0 0 0-1.735 4.576c-1.948 4.917-1.905 10.269-1.506 15.467.29 1.952.051 7.815 1.387 8.965" />
		<path d="M95.286 33.44s-.035-.034-.043-.051l.051.051M87.194 27.398c.102.29.213.673.417 1.022-.34-1.414-1.25-2.838-.697-4.303.553-1.841 2.39-1.082 3.156.162.417.877.723 1.798.995 2.727-.017-.716-.17-1.466-.153-2.156-.153-3.955-.238-7.917-.06-11.871.086-1.568.264-3.145.75-4.645.314-1.201 1.156-2.224 1.199-3.494.025-.715-.221-1.704-1.038-1.832-4.85.051-4.688 11.206-4.713 14.683-2.178-4.158-4.263-8.573-7.615-11.93-.774-.725-2.067-.554-2.697.264-1.386 2.02 1.515 3.409 2.289 5.053 3.36 5.165 5.964 10.423 8.176 16.311M125.675 27.45v-.027c0 .009 0 .026-.009.035v.017-.026M125.436 3.213c0-.12.026-.23.043-.35 0 .034-.017.068-.026.103l-.025.238M125.479 2.863l.025-.102-.025.102Z" />
		<path d="M123.411 4.44c.553.997.936 2.07 1.293 3.153 1.021 3.383 1.277 6.928 1.455 10.44.102 3.11.153 6.28-.485 9.433 0-.017 0-.026.009-.043V27.474v-.008c-.23 1.09-.698 2.19-.485 3.332.187 1.201 1.302 2.369 2.45 1.346 2.629-2.514 2.289-10.771 2.221-14.41-.239-4.943-.681-10.073-2.91-14.572-.434-.853-.936-1.816-1.982-1.977-.945-.162-1.846.494-2.085 1.38-.195.665.051 1.415.536 1.866" />
	</g>
	<mask id="mask3_2_3" width="226" height="240" x="0" y="0" maskUnits="userSpaceOnUse" style="mask-type:luminance">
		<path fill="#fff" d="M225.979 0H.825v240h225.154V0Z" />
	</mask>
	<g mask="url(#mask3_2_3)">
		<path fill="#21BCBA"
			d="M131.996 16.61c.127 3.348.187 7.285-.57 10.737-.307 1.866-2.187 5.121.918 5.48 1.362.059 1.957-1.296 2.153-2.447.315-.946.621-1.883.944-2.829 2.255-6.263 5.632-12.416 11.196-16.294 1.055-.681 2.17-2.122 1.523-3.408-2.314-1.918-5.139 1.73-6.908 3.033-2.195 2.046-3.922 4.517-5.488 7.065-.144-2.65-.493-18.603-5.351-16.064-1.82 1.219-.221 2.847.196 4.39.944 3.365 1.233 6.85 1.395 10.328" />
	</g>
	<mask id="mask4_2_3" width="226" height="240" x="0" y="0" maskUnits="userSpaceOnUse" style="mask-type:luminance">
		<path fill="#fff" d="M225.979 0H.825v240h225.154V0Z" />
	</mask>
	<g fill="#21BCBA" mask="url(#mask4_2_3)">
		<path d="m133.102 2.173.051-.025c.042-.026.068-.052.11-.077-.051.034-.11.068-.161.102ZM138.904 9.74c1.812-.715 2.084-2.982 2.493-4.652.034-2.012-2.765-2.634-3.565-.793-.477 1.645-1.523 3.698-.187 5.207.365.366.799.4 1.25.238M88.258 29.068c-.306-.17-.494-.41-.647-.656 0 .025.017.05.017.076.477 1.705.919 3.52 1.31 5.267.136.775.902 1.457 1.719 1.474 2-.06 2.229-1.78 1.684-3.366-.442-1.61-.8-3.264-1.276-4.874.009.647-.093 1.26-.57 1.772-.561.622-1.54.699-2.246.298" />
	</g>
	<mask id="mask5_2_3" width="226" height="240" x="0" y="0" maskUnits="userSpaceOnUse" style="mask-type:luminance">
		<path fill="#fff" d="M225.979 0H.825v240h225.154V0Z" />
	</mask>
	<g fill="#21BCBA" mask="url(#mask5_2_3)">
		<path d="M86.914 24.108c-.553 1.466.357 2.89.697 4.304.153.247.34.486.647.656.706.4 1.684.315 2.246-.298.468-.503.578-1.125.57-1.773-.272-.929-.579-1.84-.996-2.727-.765-1.244-2.611-2.003-3.156-.162M34.183 122.169c-9.75.119-24.672 1.074-28.679-10.09-6.134-15.305 21.422-9.306 29.105-9.144 1.378-.179 2.875-1.585 1.454-2.787-1.693-1.465-4.253-.886-6.32-1.406-3.404-.485-6.84-.698-10.278-.724-14.982-1.006-24.493 6.068-14.574 20.529 5.148 6.119 13.885 7.056 21.389 7.406.604-.009 1.216 0 1.837.025l7.683-.528c1.523-1.151.323-3.818-1.608-3.273" />
	</g>
	<mask id="mask6_2_3" width="226" height="240" x="0" y="0" maskUnits="userSpaceOnUse" style="mask-type:luminance">
		<path fill="#fff" d="M225.979 0H.825v240h225.154V0Z" />
	</mask>
	<g mask="url(#mask6_2_3)">
		<path fill="#21BCBA"
			d="M16.53 108.542c3.743-.221 7.487.103 11.23.196 2.57-.179 5.513 1.04 7.844-.298.698-.426.995-1.355.374-1.994-.995-1.287-2.722-1.116-4.168-1.227-3.148-.188-6.304-.298-9.452-.401-2.655-.076-5.352-.247-7.972.265-3.913.707-6.525 5.888-3.48 8.99 5.87 5.522 14.753 5.301 22.307 5.727-.119 0-.246-.026-.348-.06.127.034.263.06.39.068h.078c1.514.085 2.458-1.858 1.48-3.016-1.038-1.185-2.85-.597-4.246-.819-2.756-.119-5.538-.323-8.303-.784-2.544-.613-8.474-1.738-8.984-4.678.417-1.466 1.872-1.952 3.25-1.977M6.457 97.004c1.012-.614 2.135-1.023 3.241-1.423 4.058-1.432 8.414-1.27 12.651-1.057 3.233.17 6.406.81 9.529 1.636.757.23 1.557.426 2.34.188 2.177-.503 1.565-2.438.016-3.298-.995-.477-2.118-.64-3.182-.93-7.724-1.67-16.198-2.479-23.736.367-1.565.716-4.568 1.5-3.752 3.776.443 1.124 1.966 1.508 2.884.732M34.745 88.49c.068.035.144.069.221.103l.23.076c-.009 0-.017-.008-.026-.008a1.72 1.72 0 0 1-.417-.17h-.008Z" />
		<path fill="#21BCBA"
			d="M35.162 88.661c1.956.554 3.352-2.284 1.386-3.417-3.87-1.602-7.674-3.69-11.425-6.042-3.6-2.36-6.62-5.497-9.07-9.033-.62-.955-1.165-2.071-2.314-2.48-.74-.375-1.65-.12-1.871.724-.877 2.6 2.841 5.948 4.33 7.925 5.054 5.71 12.047 9.366 18.955 12.323M6.738 89.811c6.15-1.073 12.514-1.15 18.64.256h-.009c1.957.656 3.531-1.738 2-3.187-4.093-2.659-8.695-4.56-12.345-7.908-1.08-.904-1.99-1.986-2.773-3.162-.647-1.176-2.093-2.718-3.54-1.977-2.952 3.102 6.168 10.022 8.61 11.462a64.479 64.479 0 0 0-7.478.298c-1.804.367-5.377-.094-5.198 2.616.127.955 1.106 1.79 2.093 1.594" />
		<path fill="#21BCBA"
			d="M8.482 84.52c1.012 0 1.854-.87 1.846-1.875 0-1.023-.86-1.85-1.872-1.85s-1.855.87-1.846 1.875a1.879 1.879 0 0 0 1.872 1.85ZM175.427 59.431c-2.254 1.594.459 4.823 2.391 2.864 5.113-3.017 10.132-6.588 16.071-7.73 6.712-1.849 20.273 3.98 14.956 12.348-3.616 4.312-8.618 7.065-13.578 9.613-2.348 1.09-4.764 2.062-7.181 2.991-1.48.546-2.892 2.889-.697 3.503.927.358 1.923.05 2.799-.324 7.563-2.923 15.169-6.639 20.844-12.578 8.473-9.945-3.982-19.933-14.038-19.61-8.065.12-14.863 4.79-21.558 8.915" />
		<path fill="#21BCBA"
			d="M197.853 66.743c-2.943 1.78-6.108 3.153-9.248 4.55-1.429.759-3.36.972-4.236 2.489-.494.724-.417 1.73.484 2.07 1.668.81 3.327-.4 4.867-.98 3.42-1.542 6.883-2.982 10.09-4.968 6.074-3.519 4.841-11.657-2.671-11.717-6.475-.264-12.268 3.52-17.977 6.05-1.395 1.245-.017 3.716 1.778 3.154 3.726-1.458 7.214-3.503 11.017-4.773 2.212-.554 6.679-1.738 7.972.725.238 1.474-.893 2.718-2.084 3.408M193.421 84.05c-1.625.631-3.463.81-4.943 1.74-1.268.996-.451 3.246 1.148 3.254 3.956-.98 7.87-2.403 11.639-3.996 5.479-2.36 11.213-5.216 14.888-10.09 1.2-2.625-.774-3.86-2.901-2.14-5.164 5.838-12.642 8.719-19.831 11.241M218.876 96.143c-8.151-5.309-18.249-5.139-27.514-3.664-1.685.153-2.314 2.505-.859 3.434.519.358 1.174.35 1.752.188 1.429-.213 2.884-.35 4.322-.486 6.585-.827 13.493-.213 19.355 3.11 1.506.716 2.671 2.241 4.398 2.412 1.132.145 2.008-.52 1.719-1.704-.281-1.654-1.94-2.404-3.182-3.281M206.922 89.104c2.034.759 4.186 1.185 6.202 1.986 1.659.605 3.361 1.142 4.969 1.883.953.52 2.339.86 3.267.11.714-.69.136-1.985-.4-2.581-2.289-1.858-5.436-2.352-8.125-3.46 2.416-1.219 4.96-2.463 6.908-4.474 1.089-1.687-.927-3.69-2.603-2.565-2.995 2.573-6.687 4.159-10.379 5.488-1.515.724-1.362 2.991.161 3.613ZM144.8 27.85c-1.54 2.658-3.693 5.215-4.501 8.189-.034 2.105 3.097 2.556 3.65.537 4.934-8.42 11.834-21.714 23.447-19.379 16.249 2.65-3.114 23.188-7.223 29.682-.553 1.27-.128 3.28 1.625 2.692 2.135-.69 2.96-3.187 4.475-4.695 2.169-2.667 4.126-5.505 5.93-8.437 8.601-12.33 7.478-24.142-10.014-23.11-7.895 1.252-13.204 8.257-17.381 14.512" />
		<path fill="#21BCBA"
			d="M158.735 38.007c-1.174 2.293-3.735 4.193-3.794 6.886 0 .827.646 1.55 1.505 1.355 1.617-.188 2.357-1.756 3.208-2.94 1.786-2.608 3.505-5.25 5.232-7.9 1.438-2.233 2.978-4.465 3.897-6.97 1.42-3.725-1.659-8.642-5.879-7.628-7.751 2.182-12.158 9.903-16.42 16.175.068-.103.145-.196.238-.273a1.765 1.765 0 0 0-.255.307c-.017.017-.025.042-.043.06-.85 1.252.315 3.067 1.813 2.829 1.548-.282 1.982-2.14 2.892-3.222 1.523-2.309 3.14-4.584 4.96-6.715 1.838-1.858 5.87-6.366 8.635-5.283 1.038 1.116.707 2.607 0 3.809-1.744 3.323-3.956 6.374-5.972 9.527M167.362 48.029c-.587.528-1.166 1.116-1.37 1.909-.698 2.13 1.276 2.599 2.808 1.721.927-.605 1.642-1.483 2.441-2.25 5.42-5.76 10.49-12.603 11.954-20.546.195-1.712 1.08-4.695-1.294-5.172-1.191-.205-2.305.912-2.118 2.096 0 1.184-.23 2.36-.459 3.52-.877 4.218-3.267 7.865-5.633 11.385-1.812 2.684-3.998 5.079-6.321 7.328M192.408 44.842c-7.486 1.38-14.224 5.488-20.324 9.894-1.481 1.397.221 4.056 2.203 2.957 3.369-2.489 7.121-4.679 11.068-6.681 3.88-1.867 8.117-2.838 12.405-3.11 1.14-.035 2.373.067 3.318-.7.697-.434.952-1.346.348-1.985-1.769-2.088-6.55-.64-9.018-.384" />
		<path fill="#21BCBA"
			d="M172.441 54.454c-.068.043-.136.094-.204.137-.06.05-.119.102-.179.162 0 0 .017-.009.026-.017a2.45 2.45 0 0 1 .357-.273v-.009ZM175.929 45.617c-1.574 1.321-.34 3.92 1.693 3.35 4.39-2.131 8.389-5.105 13.136-6.503 1.336-.46 2.731-.681 4.135-.741 1.344.05 3.403-.392 3.513-2.02-1.123-4.133-11.749.12-14.25 1.457a63.794 63.794 0 0 0 3.607-6.561c.621-1.739 2.867-4.568.451-5.804-.885-.383-2.101.017-2.442.972-2.254 5.829-5.487 11.325-9.851 15.85" />
		<path fill="#21BCBA"
			d="M190.06 36.542c.876.52 2.025.213 2.544-.657.519-.869.213-2.036-.655-2.548-.876-.52-2.025-.213-2.544.656-.519.87-.213 2.037.655 2.549ZM142.018 20.163a65.185 65.185 0 0 0-5.522 9.612c-.315.699-.68 1.423-.697 2.207.025 2.915 2.679 2.174 3.462.094 2.867-6.8 7.249-12.876 12.881-17.657.987-.886 1.99-1.773 3.071-2.54.655-.315 1.131-.988 1.021-1.823-1.2-3.69-4.713.477-6.313 1.73-2.824 2.599-5.657 5.24-7.895 8.377" />
		<path fill="#FAA932"
			d="M176.61 115.181c0-34.156-27.642-61.843-61.74-61.843-34.099 0-61.74 27.687-61.74 61.843 0 3.784.357 7.474 1.004 11.07h121.455a62.487 62.487 0 0 0 1.004-11.07" />
	</g>
	<mask id="mask7_2_3" width="226" height="240" x="0" y="0" maskUnits="userSpaceOnUse" style="mask-type:luminance">
		<path fill="#fff" d="M225.979 0H.825v240h225.154V0Z" />
	</mask>
	<g fill="#fff" mask="url(#mask7_2_3)">
		<path d="M35.349 126.438c.068-.042.127-.085.196-.136l-7.802.434c2.56.111 5.19.35 7.614-.298M5.215 178.507l-.213-3.162c-.842-15.595-3.999-32.11-4.135-34.079-.212-3.937 2.595-5.334 4.28-5.334 4.56 0 4.628 4.704 5.053 12.578l.213 4.78c.561 9.698 2.033 17.146 2.314 17.146 1.616 0 2.382-20.307 6.38-20.307 3.574 0 3.931 11.734 6.313 19.668.068.137.281.281.35.281.067 0 .28-.144.28-.213 2.595-17.145.068-33.652 6.244-33.652 2.178 0 4.56 1.687 4.773 4.917.136 2.25-6.176 28.309-5.683 37.581.068.136.068.281.068.494.213 4.568-.697 6.11-5.053 6.11-.979 0-1.966-.068-2.731-.63-3.301-2.25-3.854-14.615-5.054-14.615-.144 0-.28.136-.349.349-3.785 11.241-3.224 14.683-7.784 14.683-4.909 0-5.054-2.735-5.258-6.604" />
	</g>
	<mask id="mask8_2_3" width="226" height="240" x="0" y="0" maskUnits="userSpaceOnUse" style="mask-type:luminance">
		<path fill="#fff" d="M225.979 0H.825v240h225.154V0Z" />
	</mask>
	<g fill="#fff" mask="url(#mask8_2_3)">
		<path d="M48.553 172.115c-1.472 0-2.527-.281-3.505-.281-.562 0-.91.281-.91 1.057 0 .281.067.562.067.843 0 .35-.28 3.298-.28 5.829v1.193c0 4.074-3.854 4.423-4.773 4.423-1.685 0-3.37-.988-3.37-2.386l4.28-22.762c4.977-16.788 3.93-24.023 10.524-24.023 2.663 0 4.28 3.017 5.334 6.673 4.212 14.334 5.887 38.007 5.887 38.075 0 4.006-3.088 4.355-3.998 4.355a4.943 4.943 0 0 1-2.944-.98c-1.055-.776-1.19-1.406-1.123-2.318.213-10.823 1.753-9.834-2.875-9.834-.979 0-1.404.145-2.314.145m-.485-4.934h.63c1.335 0 2.943-.418 4.066-.563.213 0 .349-.213.349-.494 0-1.824-.145-1.9-.145-5.761 0-1.057-.28-4.355-.349-4.985-.349-3.579-.978-9.204-3.088-9.204-.349 0-.63.282-.698.631-.348 7.584-2.875 15.595-2.875 18.262 0 1.756.417 2.105 2.101 2.105M87.9 151.808c0 9.698-.774 13.984-.774 15.458 0 1.057.068 2.25.068 3.375 0 5.266-3.581 9.979-4.415 10.891-2.178 2.463-4.56 3.792-13.119 3.792-.561 0-1.055-.136-1.616-.494-2.246-1.475-2.034-1.261-2.45-4.917.28-15.876.56-11.522.56-16.439 0-1.619-.212-5.198-.212-6.042 0-.988.213-1.057.213-2.463 0-1.269-.842-8.01-.842-12.365 0-4.985 2.526-5.761 7.503-5.761 10.729 0 15.076 7.304 15.076 14.965m-13.042-9.766c-1.123 0-2.459.349-2.459 1.542-.068 4.287-.136 8.573-.136 12.783 0 23.469-.562 16.438-.562 20.657 0 1.406.494 2.463 1.966 2.463.63 0 6.448-1.049 6.448-6.673 0-.699-.068-.912-.068-2.037 0-1.968.281-4.005.281-5.974 0-.843-.068-1.124-.068-1.474 0-.912.28-.98.28-3.161l-.067-5.344c0-1.823.144-1.891.212-3.511 0-9.058-5.402-9.271-5.819-9.271M105.503 158.762c.068-4.5.144-8.923.144-13.422 0-2.25-.28-3.588-1.684-3.588l-.494.068c-4.56.912-4.134 1.901-6.874 1.901-3.224 0-3.224-2.668-3.224-3.307 0-3.792 5.326-4.142 8.21-4.142h1.54c8.278 0 10.098.776 10.098 2.949 0 1.755-1.191 4.355-1.191 8.147 0 8.854 1.123 17.913-.698 26.631-1.123 5.411-4.211 11.453-10.447 11.453-7.929 0-10.805-4.781-10.805-9.34 0-4.073 2.314-7.942 5.326-7.942 1.472 0 3.437 1.056 3.437 3.161 0 1.125-.493 2.599-.493 3.443 0 2.386.978 3.724 2.178 3.724 2.033 0 4.909-4.005 4.909-13.703 0-1.969.068-4.005.068-6.042M121.837 185.316c-3.998 0-4.211-.844-4.211-9.553V152.72c0-1.62.068-3.23.068-4.849 0-4.074-.281-7.73-.281-8.778 0-2.667 2.246-2.744 3.157-2.744.774 0 1.54.136 2.314.136.417 0 .774-.068 2.101-.068.843 0 1.685.068 2.527.068 2.246 0 2.663-.213 3.718-.213 2.033 0 3.224 1.475 3.224 2.949 0 .989-.629 2.531-2.595 2.531-1.965 0-6.1-.494-6.176-.494-1.472 0-1.753.912-1.753 1.968 0 17.845.068 10.184.068 12.647 0 1.687-.136 3.442 0 5.13.213 2.25-.28 3.579 2.178 3.579 1.685 0 2.663-.699 4.135-.699 1.965 0 2.663 1.543 2.663 3.025 0 1.057-.494 3.23-3.65 3.23-1.404 0-2.943-.349-4.135-.349-.561 0-.978.145-1.123.707-.28 1.193-.28 6.255-.28 6.536 0 1.688.493 1.824 2.246 1.824 1.965 0 1.897-.494 4.841-.494h.416c.979 0 3.65.213 3.65 3.443 0 1.337-.697 2.667-1.897 3.229-.493.213-.349.213-7.572.213-1.472 0-2.663.069-3.65.069M145.472 158.975c0 19.037-.213 14.333-.213 16.651 0 .699.145 2.037.145 3.511 0 2.881-.63 6.187-4.28 6.187-2.663 0-3.437-1.9-3.437-5.974 0-5.761 1.54-15.876 1.54-31.121 0-1.824-.068-3.656-.068-5.344 0-4.286.561-6.749 4.696-6.749 4.977 0 6.313 9.698 10.66 26.835.068.145.281.282.417.282a.38.38 0 0 0 .349-.214c3.156-12.791 2.876-26.98 10.728-26.98 4.492 0 4.628.495 4.628 33.022v7.022c0 .418.213 1.824.213 3.443 0 2.599-.562 5.548-3.65 5.548-3.301 0-4.066-2.812-4.066-6.323 0-3.094.561-6.741.561-9.698v-7.585c0-5.828-.068-9.697-.698-10.183-.91.699-3.437 16.865-3.854 19.668-.416 2.173-.212 12.434-4.696 12.434-.349 0-2.595-.282-3.224-2.463-.349-1.125-2.663-13.558-2.663-13.908 0-2.25-.63-5.198-.91-7.303-.775-4.917-1.26-6.817-1.821-7.303-.349.417-.349 4.286-.349 6.536M191.549 164.454c0-2.105-.068-4.218-.068-6.323.068-5.411-.213-10.891-.213-16.371 0-4.704 3.02-5.266 3.999-5.266 3.02 0 3.437 4.142 3.505 6.391.281 9.068-.145 18.126-.281 27.193-.068 1.901-.068 3.793-.493 5.625-.426 1.687-1.259 3.298-2.102 4.849-3.156 5.479-9.681 7.022-15.22 4.073-4.483-2.25-5.045-7.661-5.045-12.152s.63-8.292.63-18.339c0-4.005-.281-5.479-.281-8.223 0-4.287.281-5.829.91-6.954.843-1.619 1.898-2.531 3.157-2.531.493 0 3.786.349 3.786 5.266 0 7.661-.494 15.314-.775 22.975-.136 3.162-.774 6.391-.28 9.553.493 3.375 4.211 7.303 7.01 3.093.774-1.124 1.123-2.53 1.336-3.937.417-2.948.493-5.897.417-8.922M204.31 166.423c0-11.172-.136-6.042-.136-22.549 0-.912-.28-2.463-.28-3.86 0-1.824.28-3.58 3.717-3.58.562 0 1.123.069 1.753.069 1.616 0 3.718-.35 5.538-.35 7.292 0 11.086 8.224 11.086 16.515 0 10.891-6.1 20.299-11.57 20.299-1.617 0-2.102-.843-2.595-.843-.349 0-.698.349-.698.775 0 2.881.562 4.005.562 6.741 0 .068.348 5.479-4.067 5.479-.706 0-3.718-.281-3.786-3.655 0-5.548.493-10.746.493-15.033m6.364-7.243.417 6.672c.068.912.774 1.27 1.685.912.28-.145.561-.281.774-.418 1.335-.98 2.458-2.104 3.156-3.579 2.101-4.423 2.808-9.766 1.685-14.47-.417-2.105-1.336-4.917-3.369-5.897-2.17-1.125-4.212-.281-4.416 2.182-.349 4.849-.213 9.766.068 14.615M12.514 233.259l-.204-3.127c-.834-15.408-3.947-31.718-4.084-33.661-.204-3.886 2.561-5.275 4.229-5.275 4.5 0 4.577 4.652 4.985 12.424l.204 4.721c.553 9.579 2.008 16.933 2.289 16.933 1.59 0 2.357-20.06 6.304-20.06 3.53 0 3.88 11.59 6.236 19.43.068.136.281.281.349.281.068 0 .28-.136.28-.213 2.562-16.933.069-33.244 6.169-33.244 2.144 0 4.5 1.662 4.713 4.858.136 2.224-6.1 27.968-5.615 37.129.068.137.068.281.068.486.204 4.508-.69 6.033-4.985 6.033-.97 0-1.94-.068-2.706-.622-3.258-2.224-3.811-14.436-4.985-14.436-.136 0-.281.137-.35.35-3.742 11.104-3.19 14.504-7.69 14.504-4.85 0-4.986-2.71-5.198-6.528M47.294 230.899c0-2.71.484-10.414.484-13.951 0-.553-.068-.698-.068-1.184 0-1.807.136-3.681.136-5.548 0-3.954-.833-9.51-.833-13.532 0-5.062 2.977-5.344 4.015-5.344 3.812 0 4.16 6.315 4.16 7.15 0 1.594-.757 10.064-.757 16.098 0 4.099.35 8.675.35 11.871 0 2.778-.282 5.556-.554 8.394-.068.699-.28 4.857-2.91 4.857-1.454 0-2.977-1.389-3.462-2.914-.553-1.662-.553-5.829-.553-5.897M73.072 223.544c0 .486.136.205 1.59 3.401 2.425 5.556 6.653 5.479 6.653 8.675 0 1.525-1.037 4.303-3.598 4.303-7.972 0-7.41-16.242-10.465-16.242-.553 0-1.386.417-1.386 4.584 0 2.71.349 5.966.349 7.5 0 3.954-3.046 3.817-3.114 3.817-3.744 0-3.463-4.303-3.463-4.371 0-5.625.698-17.214.698-19.439 0-4.584.068-9.16 0-13.737 0-2.914-1.387-9.646 2.841-9.715 2.357 0 4.714-.417 7.07-.417 9.359 0 12.404 9.442 12.404 13.533v1.525c-.136 2.292.136 8.394-4.985 13.737-2.561 2.778-4.577 1.662-4.577 2.846M62.81 211.256v-.068h-.136l.136.068Zm13.034-4.994c0-8.121-6.585-9.093-7.07-9.093-2.22 0-2.076 2.429-2.076 3.332 0 1.108.281 13.669-.136 13.738h.068v.903c0 1.875-.068 2.292 1.66 2.292 3.394 0 7.554-5.411 7.554-11.172Z" />
	</g>
	<mask id="mask9_2_3" width="226" height="240" x="0" y="0" maskUnits="userSpaceOnUse" style="mask-type:luminance">
		<path fill="#fff" d="M225.979 0H.825v240h225.154V0Z" />
	</mask>
	<g fill="#fff" mask="url(#mask9_2_3)">
		<path d="M86.505 230.899c0-2.71.485-10.414.485-13.951 0-.553-.068-.698-.068-1.184 0-1.807.136-3.681.136-5.548 0-3.954-.834-9.51-.834-13.532 0-5.062 2.978-5.344 4.016-5.344 3.812 0 4.16 6.315 4.16 7.15 0 1.594-.765 10.064-.765 16.098 0 4.099.348 8.675.348 11.871 0 2.778-.28 5.556-.553 8.394-.068.699-.28 4.857-2.91 4.857-1.454 0-2.977-1.389-3.462-2.914-.553-1.662-.553-5.829-.553-5.897ZM100.917 239.506c-.281-.205-.485-.554-.697-.904-1.387-2.565-.97-5.411-.97-8.325v-7.84c0-6.034.204-12.008.204-18.041 0-4.653-.136-6.869-.136-8.394 0-2.088.417-4.994 3.394-4.994 1.251 0 2.493.69 2.978 2.148.417.971 8.593 24.917 9.146 24.917.204 0 .28-.767.28-2.147 0-12.629-.765-15.544-.765-19.43 0-.554-.349-5.479 3.607-5.479 4.577 0 3.811 7.081 3.811 9.024 0 2.915-.28 5.829-.28 8.675 0 3.75.204 7.5.204 11.173 0 16.242.689 19.438-3.191 19.438-2.773 0-3.326-4.167-5.062-8.539-2.977-7.636-6.168-17.351-7.486-17.351v.069c-.068 7.081-.281 14.163.136 21.168.136 1.525.136 3.264-.97 4.303-.766.622-.834.836-1.804.972-.833.136-1.803.136-2.424-.418" />
	</g>
	<mask id="mask10_2_3" width="226" height="240" x="0" y="0" maskUnits="userSpaceOnUse" style="mask-type:luminance">
		<path fill="#fff" d="M225.979 0H.825v240h225.154V0Z" />
	</mask>
	<g fill="#fff" mask="url(#mask10_2_3)">
		<path d="M139.925 218.823c0-8.121-.205-11.658-.205-12.978 0-4.091-.068-5.412-.068-7.636v-1.662c0-.971.068-1.943.485-2.982.281-.904 1.251-.972 3.744-.972.833 0 1.735.068 2.637.068 2.289 0 2.774-.204 4.645-.204 9.078 0 12.056 9.996 12.056 14.581 0 3.263-1.106 6.382-3.259 9.161-1.387 1.806-2.493 1.67-2.493 2.292 0 1.04 4.578 3.886 4.578 9.161 0 3.119-1.523 12.288-10.95 12.288-1.455 0-2.909-.068-4.364-.068-3.114 0-3.676.137-4.569.137-1.523 0-2.569-.418-2.569-2.497 0-5.966.349-12.212.349-18.672m6.568-12.092c.204 9.51-.281 10.2 1.939 10.2 7.691 0 8.108-10.132 8.108-10.967 0-5.207-3.675-7.84-6.585-7.84-.97 0-2.705 0-3.394.486-.349.281-.417.767-.417 1.389 0 1.389.136-1.253.349 6.732Zm-.349 19.293c0 .699 0 1.389.068 2.148.068 4.584.281 5.692 2.288 5.692 4.084 0 5.888-2.846 5.888-5.897 0-5.343-4.433-4.857-5.888-4.857-2.075 0-2.356 1.176-2.356 2.914ZM167.081 230.899c0-2.71.485-10.414.485-13.951 0-.553-.068-.698-.068-1.184 0-1.807.136-3.681.136-5.548 0-3.954-.834-9.51-.834-13.532 0-5.062 2.978-5.344 4.016-5.344 3.811 0 4.16 6.315 4.16 7.15 0 1.594-.766 10.064-.766 16.098 0 4.099.349 8.675.349 11.871 0 2.778-.28 5.556-.553 8.394-.068.699-.28 4.857-2.909 4.857-1.455 0-2.978-1.389-3.463-2.914-.553-1.662-.553-5.829-.553-5.897ZM201.792 206.884c0 9.579-.765 13.814-.765 15.271 0 1.04.068 2.225.068 3.332 0 5.207-3.54 9.852-4.365 10.755-2.152 2.429-4.509 3.749-12.957 3.749-.553 0-1.038-.136-1.591-.485-2.22-1.458-2.008-1.253-2.425-4.858.281-15.688.553-11.385.553-16.242 0-1.594-.204-5.139-.204-5.974 0-.972.204-1.04.204-2.429 0-1.253-.833-7.917-.833-12.212 0-4.925 2.492-5.692 7.41-5.692 10.6 0 14.897 7.218 14.897 14.785m-12.881-9.646c-1.106 0-2.425.349-2.425 1.525-.068 4.235-.136 8.471-.136 12.629 0 23.18-.553 16.243-.553 20.41 0 1.389.485 2.429 1.94 2.429.621 0 6.372-1.04 6.372-6.596 0-.699-.068-.903-.068-2.011 0-1.943.281-3.954.281-5.897 0-.836-.068-1.108-.068-1.458 0-.903.281-.971.281-3.119l-.068-5.275c0-1.806.136-1.874.204-3.468 0-8.956-5.334-9.161-5.751-9.161" />
	</g>
	<mask id="mask11_2_3" width="226" height="240" x="0" y="0" maskUnits="userSpaceOnUse" style="mask-type:luminance">
		<path fill="#fff" d="M225.979 0H.825v240h225.154V0Z" />
	</mask>
	<g mask="url(#mask11_2_3)">
		<path fill="#fff"
			d="M206.089 230.899c0-2.71.485-10.414.485-13.951 0-.553-.069-.698-.069-1.184 0-1.807.137-3.681.137-5.548 0-3.954-.834-9.51-.834-13.532 0-5.062 2.978-5.344 4.015-5.344 3.812 0 4.161 6.315 4.161 7.15 0 1.594-.766 10.064-.766 16.098 0 4.099.349 8.675.349 11.871 0 2.778-.281 5.556-.553 8.394-.068.699-.281 4.857-2.91 4.857-1.455 0-2.977-1.389-3.462-2.914-.553-1.662-.553-5.829-.553-5.897Z" />
		<path fill="#21BCBA"
			d="M192.179 99.382c-2.74.349-1.864 4.473.765 3.647 5.93-.256 12.039-1.04 17.815.75 6.789 1.534 16.029 13.064 7.402 17.938-5.207 2.105-10.924 2.173-16.496 2.088-2.587-.136-5.173-.418-7.742-.741-1.557-.222-3.914 1.184-2.263 2.761.655.75 1.667.954 2.62 1.031 8.048.988 16.505 1.287 24.298-1.278 12.149-4.781 5.845-19.473-3.182-23.921-7.172-3.69-15.365-2.77-23.217-2.284" />
	</g>
	<mask id="mask12_2_3" width="226" height="240" x="0" y="0" maskUnits="userSpaceOnUse" style="mask-type:luminance">
		<path fill="#fff" d="M225.979 0H.825v240h225.154V0Z" />
	</mask>
	<g mask="url(#mask12_2_3)">
		<path fill="#21BCBA"
			d="M208.547 116.4c-3.437.187-6.874-.094-10.294-.341-1.616 0-3.429-.725-4.909.196-.783.409-1.182 1.329-.544 2.053 1.097 1.5 3.122 1.211 4.755 1.424 3.744.247 7.479.613 11.239.366 7.01-.247 9.741-8.011 3.139-11.598-5.589-3.281-12.472-2.676-18.699-3.128-1.821.435-1.762 3.273.093 3.614 3.973.468 8.014.306 11.962.98 2.212.553 6.704 1.61 6.695 4.397-.485 1.414-2.058 1.977-3.437 2.028" />
	</g>
</svg>
